<?xml version="1.0" encoding="UTF-8"?>
<!DOCTYPE svg PUBLIC "-//W3C//DTD SVG 1.1//EN" "http://www.w3.org/Graphics/SVG/1.1/DTD/svg11.dtd">
<!-- Creator: CorelDRAW 2021 (64-Bit) -->
<svg xmlns="http://www.w3.org/2000/svg" xml:space="preserve" width="100%" height="100%" version="1.1" shape-rendering="geometricPrecision" text-rendering="geometricPrecision" image-rendering="optimizeQuality" fill-rule="evenodd" clip-rule="evenodd"
viewBox="0 0 3231.758 702.734"
 xmlns:xlink="http://www.w3.org/1999/xlink"
 xmlns:xodm="http://www.corel.com/coreldraw/odm/2003">
 <defs>
     <linearGradient id="id0" gradientUnits="userSpaceOnUse" x1="259.086" y1="474.308" x2="510.383" y2="222.561">
      <stop offset="0" stop-opacity="1" stop-color="#7ECEFD"/>
      <stop offset="1" stop-opacity="1" stop-color="#56B1FC"/>
     </linearGradient>
 </defs>
 <g id="Layer_x0020_1">
  <metadata id="CorelCorpID_0Corel-Layer"/>
  <g id="Capacitor-Banner.svg">
   <polygon fill="#62BAFC" points="-0,702.734 3231.758,702.734 3231.758,0 -0,0 "/>
   <text x="824.541" y="443.679"  fill="white" stroke="white" stroke-width="0.762" stroke-linecap="round" stroke-linejoin="round" stroke-miterlimit="22.9256" font-weight="bold" font-size="282.222px" font-family="Arial">CAPACITOR.JS</text>
   <g>
    <polygon fill="white" stroke="white" stroke-width="0.762" stroke-miterlimit="22.9256" points="210.797,532.356 568.539,531.484 568.562,175.578 552.917,174.854 226.039,174.574 210.797,176.242 "/>
    <path id="Capacitor-logo" fill="url(#id0)" fill-rule="nonzero" d="M528.374 371.272c3.33,3.279 3.188,5.06 -0.071,8.207 -11.132,10.788 -22.062,21.87 -33.022,32.881 -1.873,1.882 -3.229,3.33 -5.89,0.648 -32.959,-33.229 -65.978,-66.389 -99.058,-99.483 -20.166,-19.998 -40.343,-39.985 -60.53,-59.963 -1.943,-1.912 -1.72,-3.208 0.112,-5.06 11.76,-11.645 23.462,-23.354 35.107,-35.127 2.166,-2.196 3.492,-1.812 5.455,0.172 14.351,14.546 28.755,29.052 43.214,43.517l0 0c3.916,3.785 7.813,7.6 11.76,11.345 1.578,1.498 2.803,3.562 5.353,3.653 19.532,-19.485 39.051,-38.986 58.556,-58.505 2.176,-2.186 3.553,-2.49 5.901,-0.111 11.203,11.334 22.487,22.598 33.973,33.65 2.986,2.864 2.682,4.412 -0.091,7.145 -18.338,18.085 -36.382,36.433 -54.821,54.447 -3.795,3.694 -3.36,5.505 0.162,8.956 18.084,17.741 35.815,35.866 53.89,53.628zm-139.407 22.193c-0.193,-0.357 -0.421,-0.698 -0.678,-1.012 -32.662,-32.668 -65.313,-65.353 -97.955,-98.055 -2.489,-2.49 -3.937,-2.439 -6.365,0 -11.011,11.243 -22.093,22.426 -33.398,33.397 -3.218,3.097 -2.793,4.766 0.152,7.671 18.045,17.812 35.786,35.917 53.891,53.637 3.664,3.603 3.542,5.556 -0.071,9.109 -18.216,17.913 -36.109,36.16 -54.235,54.174 -2.651,2.631 -3.36,4.21 -0.242,7.236 11.294,10.96 22.345,22.163 33.285,33.488 2.632,2.732 4.048,2.692 6.71,0 12.428,-12.705 24.99,-25.284 37.688,-37.739 6.893,-7.455 14.286,-14.571 21.954,-21.238l0.017 -0.014 15.889 15.828 0 0c14.391,14.438 28.769,28.893 43.133,43.365 2.024,2.024 3.512,2.095 5.566,0 11.632,-11.732 23.317,-23.408 35.057,-35.026 1.872,-1.852 1.892,-3.148 0,-5.06 -20.173,-19.856 -40.306,-39.776 -60.398,-59.761z"/>
   </g>
  </g>
 </g>
</svg>
