<?xml version="1.0" encoding="UTF-8"?>
<!DOCTYPE svg PUBLIC "-//W3C//DTD SVG 1.1//EN" "http://www.w3.org/Graphics/SVG/1.1/DTD/svg11.dtd">
<!-- Creator: CorelDRAW 2021 (64-Bit) -->
<svg xmlns="http://www.w3.org/2000/svg" xml:space="preserve" width="100%" height="100%" version="1.1" shape-rendering="geometricPrecision" text-rendering="geometricPrecision" image-rendering="optimizeQuality" fill-rule="evenodd" clip-rule="evenodd"
viewBox="0 0 3231.727 702.732"
 xmlns:xlink="http://www.w3.org/1999/xlink"
 xmlns:xodm="http://www.corel.com/coreldraw/odm/2003">
 <g id="Layer_x0020_1">
  <metadata id="CorelCorpID_0Corel-Layer"/>
  <g id="CSS3-Banner.svg">
   <polygon fill="#1572B6" points="-0,702.732 3231.727,702.732 3231.727,0 -0,0 "/>
   <text x="1205.074" y="443.678"  fill="white" stroke="white" stroke-width="0.762" stroke-linecap="round" stroke-linejoin="round" stroke-miterlimit="22.9256" font-weight="bold" font-size="282.222px" font-family="Arial">CSS 3</text>
   <g>
    <path fill="#FEFEFF" d="M213.293 490.875c12.222,5.4 114.392,35.393 125.897,35.405 14.125,0.015 111.747,-28.569 124.495,-35.899l28.967 -313.906 -306.044 -0.025 26.685 314.425z"/>
    <path fill="#1572B6" d="M393.467 279.849l-3.136 37.818 -95.733 1.519 1.758 37.1 90.251 1.174 -5.226 48.929c-32.945,19.726 -49.957,11.824 -84.38,2.02 -7.948,-34.591 6.799,-31.158 -42.01,-31.076l4.156 56.708c20.884,4.716 60.256,21.36 77.036,22.807 20.898,1.802 64.581,-11.687 79.668,-22.691l19.543 -192.902 -192.55 -0.532c2.963,53.465 -13.783,39.126 150.623,39.126z"/>
   </g>
  </g>
 </g>
</svg>
