<?xml version="1.0" encoding="UTF-8"?>
<!DOCTYPE svg PUBLIC "-//W3C//DTD SVG 1.1//EN" "http://www.w3.org/Graphics/SVG/1.1/DTD/svg11.dtd">
<!-- Creator: CorelDRAW 2021 (64-Bit) -->
<svg xmlns="http://www.w3.org/2000/svg" xml:space="preserve" width="100%" height="100%" version="1.1" shape-rendering="geometricPrecision" text-rendering="geometricPrecision" image-rendering="optimizeQuality" fill-rule="evenodd" clip-rule="evenodd"
viewBox="0 0 3231.758 702.734"
 xmlns:xlink="http://www.w3.org/1999/xlink"
 xmlns:xodm="http://www.corel.com/coreldraw/odm/2003">
 <g id="Layer_x0020_1">
  <metadata id="CorelCorpID_0Corel-Layer"/>
  <g id="Cypress-Banner.svg">
   <polygon fill="#38B2AC" points="-0,702.734 3231.758,702.734 3231.758,0 -0,0 "/>
   <text x="930.445" y="443.679"  fill="white" stroke="white" stroke-width="0.762" stroke-linecap="round" stroke-linejoin="round" stroke-miterlimit="22.9256" font-weight="bold" font-size="282.222px" font-family="Arial">CYPRESS</text>
   <g>
    <polygon fill="#FEFFFF" points="147.5,561.847 568.462,561.847 568.462,140.885 147.5,140.885 "/>
    <g>
     <path fill="#1B1E2F" d="M295.876 498.061c-1.092,1.907 0.041,0.422 -2.658,2.299 -3.202,2.225 -2.329,-1.281 -2.293,4.353 3.285,1.75 4.763,0.585 8.216,2.277 -2.396,6.172 -5.331,-0.714 -13.665,8.396 2.873,-1.117 2.423,-1.695 5.376,-3.227 -0.989,5.376 -1.731,2.632 -3.232,6.307l4.054 4.332c8.489,6.183 73.084,21.658 93.055,5.8 10.893,-8.647 14.3,-22.342 20.173,-36.616l49.746 -120.765c4.342,-10.312 31.954,-75.693 32.898,-80.775l-27.357 -0.026c-6.149,12.953 -31.331,84.123 -35.906,89.087l-35.812 -89.044 -29.048 0.017 27.931 69.367c5.117,11.747 9.478,23.063 14.458,35.062 8.963,21.605 8.969,14.998 0.369,36.443 -9.402,23.448 -18.984,46.493 -28.846,70.071 -3.462,8.273 -4.872,8.52 -15.327,8.493 -15.915,-0.042 -28.19,-2.271 -43.116,-6.004 -5.5,-1.376 -14.759,-5.575 -19.016,-5.847z"/>
     <path fill="#1B1E2F" d="M361.744 374.343l-25.103 -8.029c-9.56,33.975 -70.035,30.373 -70.052,-14.948 -0.014,-44.934 59.166,-49.499 69.939,-15.445 4.511,-0.729 22.808,-6.591 25.163,-8.76 -27.093,-63.848 -122.735,-45.036 -122.735,24.205 -0.001,54.242 58.462,76.885 96.739,54.549 9.922,-5.788 23.002,-18.256 26.049,-31.572z"/>
    </g>
    <g>
     <path fill="#5CD2A2" d="M304.251 176.041l3.477 0.426c-1.233,3.226 -0.823,1.638 -1.939,2.496 -1.997,1.533 -0.689,0.583 -3.289,1.682l1.347 0.713c7.462,3.207 5.958,0.378 5.948,7.154 -3.436,0.282 -2.88,0.106 -5.109,1.836l8.224 0.943c0.491,1.181 -0.105,0.668 -0.113,1.169 -0.021,1.417 -0.753,1.893 3.292,1.974l0.005 3.963c15.821,-2.549 26.537,-5.832 44.024,-5.567 7.275,0.109 14.589,0.861 21.829,1.872 5.397,0.752 16.919,4.225 20.87,3.698 9.212,-0.876 17.667,6.809 21.987,4.646 0.063,-0.031 0.28,-0.218 0.338,-0.262 3.622,-2.711 1.238,-1.79 -4.695,-4.283 -5.258,-2.21 -3.089,1.611 -3.43,-3.943 2.353,-1.668 4.11,-0.553 5.393,-0.512 3.142,0.1 3.675,-0.122 5.968,-1.593 -0.216,-0.136 -0.59,-0.509 -0.713,-0.282 -0.127,0.234 -0.569,-0.212 -0.751,-0.248 -3.394,-0.693 -5.924,-0.261 -8.021,-1.702 4.281,-0.119 3.865,0.048 6.413,-1.978l-3.368 -1.867c-3.2,-1.435 -0.391,-0.595 -3.97,-1.386 -0.139,0.232 -0.294,0.344 -0.349,0.73 -0.071,0.502 -0.571,1.233 -0.686,1.478l-1.069 2.209c-6.341,-0.337 -6.021,1.05 -7.347,-4.321 1.976,-1.283 5.124,-0.973 7.347,-0.908 2.236,-3.834 0.235,-2.03 4.135,-4.275l-1.185 -2.633c-24.229,-5.315 -25.493,-9.141 -55.565,-10.025 -10.792,-0.317 -21.97,0.469 -31.887,1.77 -5.636,0.74 -8.789,1.457 -14.128,2.654l-12.983 4.372z"/>
     <path fill="#397565" d="M182.865 294.708c-11.22,32.31 -11.622,69.695 -3.196,103.346l2.776 6.464c1.627,-1.723 0.811,-1.339 1.945,-2.817l3.92 5.697c1.857,2.935 -2.033,2.72 9.53,2.685 -0.022,-3.507 -0.911,-8.907 2.306,-9.5 2.766,-0.51 -0.195,0.391 3.623,0.634 3.39,0.213 -0.627,-2.438 3.594,0.66 -3.32,-15.506 -6.973,-26.468 -7.729,-44.195 -0.355,-8.341 -0.017,-16.629 0.987,-24.916 0.708,-5.847 3.5,-16.991 3.262,-21.692 -0.32,-3.377 0.498,-4.279 0.208,-7.949 -0.264,-3.362 -0.863,-1.675 -0.984,-6.314 -3.64,0.338 -3.566,0.477 -3.868,4.15 -6.108,-2.522 -6.937,1.579 -7.597,-4.248 -1.641,2.599 -0.929,3.806 -5.202,4.221 -1.364,-2.072 -1.109,-5.06 -1.092,-7.195 -0.937,1.071 -0.697,0.154 -2.483,0.969z"/>
     <path fill="#459B7D" d="M182.865 294.708c1.786,-0.815 1.546,0.102 2.483,-0.969 -0.017,2.135 -0.272,5.123 1.092,7.195 4.273,-0.415 3.561,-1.622 5.202,-4.221 0.66,5.827 1.489,1.726 7.597,4.248 0.302,-3.673 0.228,-3.812 3.868,-4.15 0.121,4.639 0.72,2.952 0.984,6.314 0.29,3.67 -0.528,4.572 -0.208,7.949 1.848,-1.959 6.11,-17.036 9.472,-24.339 15.364,-33.357 42.267,-56.726 42.548,-57.451 0.157,-2.943 0.667,-0.013 -0.76,-2.56 -3.297,-5.882 -8.674,-7.193 -6.853,-15.327 -5.231,-2.908 -2.927,1.389 -5.177,-3.496 -10.092,6.03 -27.363,25.518 -35.665,37.125 -7.734,10.812 -20.936,33.878 -24.583,49.682z"/>
     <path fill="#CCF1E3" d="M515.666 338.419c-0.217,25.207 -0.224,46.963 -9.697,70.407 -1.309,3.238 -3.188,6.415 -4.224,9.338 -1.863,5.259 -2.319,5.223 -3.976,8.942 -2.379,12.399 -4.808,13.128 -5.932,16.804 7.215,-0.554 1.562,-1.497 7.166,-5.306 0.169,0.213 0.34,0.329 0.404,0.708l3.849 4.574c0.171,0.148 0.438,0.332 0.602,0.479 2.796,2.49 1.41,-1.462 1.659,1.718 -1.976,7.971 -4.145,0.16 -4.082,8.182 1.69,-0.602 6.328,-4.054 7.61,-5.495 6.551,-7.349 0.687,-2.639 8.361,-5.137 1.37,-3.758 4.165,-7.355 6.266,-11.668 17.749,-36.426 20.591,-66.5 17.442,-105.855 -0.54,-6.749 -0.664,-6.278 -2.534,-8.347 0.015,8.237 1.958,18.346 2.301,27.286 0.292,7.63 -0.446,19.637 -1.56,27.149 -1.163,-7.595 -0.908,-1.638 -2.498,-4.821 -1.283,-2.569 -0.721,-4.467 -0.673,-7.658l-18.24 0.108c-0.155,-6.173 0.946,-17.026 -2.244,-21.408z"/>
     <path fill="#294345" d="M216.528 467.972c1.008,4.147 11.036,13.535 14.51,16.647 2.793,2.504 5.095,5.12 8.202,7.584 3.412,2.707 6.272,4.819 9.532,7.29 9.8,7.428 28.722,19.863 42.902,23.305l-4.054 -4.332c1.501,-3.675 2.243,-0.931 3.232,-6.307 -2.953,1.532 -2.503,2.11 -5.376,3.227 8.334,-9.11 11.269,-2.224 13.665,-8.396 -3.453,-1.692 -4.931,-0.527 -8.216,-2.277 -0.036,-5.634 -0.909,-2.128 2.293,-4.353 2.699,-1.877 1.566,-0.392 2.658,-2.299 -2.295,-2.35 -5.335,-3.346 -8.24,-4.779 -3.287,-1.621 -5.571,-2.766 -8.316,-4.333 -11.115,-6.349 -20.047,-13.216 -29.244,-21.27 -4.242,-3.716 -9.573,-10.772 -12.796,-13.139 -6.905,2.495 1.389,5.886 -8.654,6.49 -1.465,0.088 -3.834,-0.088 -5.353,-0.129l-0.208 1.267c-1.037,2.746 -1.835,-0.416 -1.787,6.991l-1.562 -2.849c-0.641,-1.535 -0.075,-0.712 -0.716,-2.449l0.398 4.495c-0.264,-0.158 -0.599,-0.45 -0.751,-0.534 -6.193,-3.417 -2.184,-1.43 -2.119,0.15z"/>
     <path fill="#9BE2C5" d="M464.205 232.899l1.005 1.488c0.91,1.163 0.386,0.583 1.568,1.895 0.917,1.016 1.936,2.003 3.123,3.173 2.456,2.419 3.411,3.157 5.674,5.903 3.592,4.359 6.476,7.847 10.24,12.904 3.268,4.39 6.321,8.615 9.395,13.732 1.704,2.838 6.171,12.573 7.748,14.178 3.903,2.895 3.435,5.74 5.963,8.813l3.175 9.69 2.22 1.302c1.867,-2.417 1.394,-1.667 1.464,-5.212 0.943,0.967 0.672,0.242 1.458,1.945 3.283,7.111 -1.403,4.815 2.813,6.108 1.198,-2.441 0.523,-4.744 0.897,-7.913 0.621,-5.259 1.741,-3.587 2.143,-8.63l2.34 0.027c-0.592,7.613 -1.078,9.586 3.735,15.499 4.84,-6.898 0.814,-7.896 -0.297,-12.824 -1.498,-6.648 2.778,-0.887 -2.732,-12.878 -1.257,-2.735 -2.315,-6.639 -2.923,-10.614 -0.512,-5.585 -12.541,-23.609 -16.534,-28.863 -4.184,-5.508 -16.257,-21.793 -22.311,-24.559 0.631,6.087 2.327,4.963 3.526,5.35 -2.086,2.214 -5.02,2.594 -5.021,2.594 -0.123,-0.214 -0.529,0.068 -0.758,0.193 3.123,1.219 1.868,-0.447 4.444,0.723 -0.212,0.22 -0.509,0.495 -0.628,0.666 -2.18,3.112 -1.914,0.798 -1.351,3.519 0.499,2.414 7.72,9.457 7.935,9.755 -4.425,2.911 -4.507,0.819 -6.05,-2.128 -2.383,0.883 -0.959,0.616 -2.593,1.816 -1.678,1.235 0.798,0.287 -1.761,1.322 0.259,-11.627 -5.145,-15.034 -15.268,-11.993 1.608,2.133 0.749,1.436 3.861,2.167 2.953,0.695 3.165,-0.067 5.295,1.45 0.131,1.876 0.346,1.176 0.015,3.113 -0.364,2.134 -0.353,1.213 -1.217,2.548 -4.979,-0.829 -5.704,-4.428 -10.593,-6.259z"/>
     <path fill="#82DBB5" d="M402.817 198.4c5.107,4.247 24.967,7.3 47.795,24.575 4.355,3.297 9.96,8.545 13.593,9.924 4.889,1.831 5.614,5.43 10.593,6.259 0.864,-1.335 0.853,-0.414 1.217,-2.548 0.331,-1.937 0.116,-1.237 -0.015,-3.113 -2.13,-1.517 -2.342,-0.755 -5.295,-1.45 -3.112,-0.731 -2.253,-0.034 -3.861,-2.167 10.123,-3.041 15.527,0.366 15.268,11.993 2.559,-1.035 0.083,-0.087 1.761,-1.322 1.634,-1.2 0.21,-0.933 2.593,-1.816 1.543,2.947 1.625,5.039 6.05,2.128 -0.215,-0.298 -7.436,-7.341 -7.935,-9.755 -0.563,-2.721 -0.829,-0.407 1.351,-3.519 0.119,-0.171 0.416,-0.446 0.628,-0.666 -2.576,-1.17 -1.321,0.496 -4.444,-0.723 0.229,-0.125 0.635,-0.407 0.758,-0.193 0.001,0 2.935,-0.38 5.021,-2.594 -1.199,-0.387 -2.895,0.737 -3.526,-5.35 -3.72,-5.806 -21.945,-18.629 -28.964,-23.088 -9.48,-6.023 -24.961,-14.255 -36.591,-17.705l1.185 2.633c-3.9,2.245 -1.899,0.441 -4.135,4.275 -2.223,-0.065 -5.371,-0.375 -7.347,0.908 1.326,5.371 1.006,3.984 7.347,4.321l1.069 -2.209c0.115,-0.245 0.615,-0.976 0.686,-1.478 0.055,-0.386 0.21,-0.498 0.349,-0.73 3.579,0.791 0.77,-0.049 3.97,1.386l3.368 1.867c-2.548,2.026 -2.132,1.859 -6.413,1.978 2.097,1.441 4.627,1.009 8.021,1.702 0.182,0.036 0.624,0.482 0.751,0.248 0.123,-0.227 0.497,0.146 0.713,0.282 -2.293,1.471 -2.826,1.693 -5.968,1.593 -1.283,-0.041 -3.04,-1.156 -5.393,0.512 0.341,5.554 -1.828,1.733 3.43,3.943 5.933,2.493 8.317,1.572 4.695,4.283 -0.058,0.044 -0.275,0.231 -0.338,0.262 -4.32,2.163 -12.775,-5.522 -21.987,-4.646z"/>
     <path fill="#51B48E" d="M243.113 207.901c2.25,4.885 -0.054,0.588 5.177,3.496 -1.821,8.134 3.556,9.445 6.853,15.327 1.427,2.547 0.917,-0.383 0.76,2.56 5.201,-2.381 8.949,-5.882 13.782,-9.35 4.08,-2.928 9.445,-6.251 14.341,-8.782 10.862,-5.612 20.551,-8.996 32.068,-12.755l-0.005 -3.963c-4.045,-0.081 -3.313,-0.557 -3.292,-1.974 0.008,-0.501 0.604,0.012 0.113,-1.169l-8.224 -0.943c2.229,-1.73 1.673,-1.554 5.109,-1.836 0.01,-6.776 1.514,-3.947 -5.948,-7.154l-1.347 -0.713c2.6,-1.099 1.292,-0.149 3.289,-1.682 1.116,-0.858 0.706,0.73 1.939,-2.496l-3.477 -0.426c-11.613,-0.469 -55.459,23.773 -61.138,31.86z"/>
     <path fill="#2E5A53" d="M182.445 404.518c-0.335,7.349 9.825,28.113 13.378,34.294 4.247,7.388 15.065,26.33 20.705,29.16 -0.065,-1.58 -4.074,-3.567 2.119,-0.15 0.152,0.084 0.487,0.376 0.751,0.534l-0.398 -4.495c0.641,1.737 0.075,0.914 0.716,2.449l1.562 2.849c-0.048,-7.407 0.75,-4.245 1.787,-6.991l0.208 -1.267c1.519,0.041 3.888,0.217 5.353,0.129 10.043,-0.604 1.749,-3.995 8.654,-6.49 -2.422,-4.334 -5.793,-7.735 -8.639,-11.723 -3.012,-4.22 -5.264,-7.689 -8.245,-12.783 -4.837,-8.267 -12.639,-27.597 -13.033,-28.157 -4.221,-3.098 -0.204,-0.447 -3.594,-0.66 -3.818,-0.243 -0.857,-1.144 -3.623,-0.634 -3.217,0.593 -2.328,5.993 -2.306,9.5 -11.563,0.035 -7.673,0.25 -9.53,-2.685l-3.92 -5.697c-1.134,1.478 -0.318,1.094 -1.945,2.817z"/>
     <path fill="#EBF5F2" d="M517.406 443.633c-7.674,2.498 -1.81,-2.212 -8.361,5.137 -1.282,1.441 -5.92,4.893 -7.61,5.495 -0.063,-8.022 2.106,-0.211 4.082,-8.182 -0.249,-3.18 1.137,0.772 -1.659,-1.718 -0.164,-0.147 -0.431,-0.331 -0.602,-0.479l-3.849 -4.574c-0.064,-0.379 -0.235,-0.495 -0.404,-0.708 -5.604,3.809 0.049,4.752 -7.166,5.306 1.124,-3.676 3.553,-4.405 5.932,-16.804l-3.513 3.777c-6.773,10.446 -11.854,19.3 -20.478,29.013 -1.765,1.988 -4.664,4.888 -6.809,6.83 -2.558,2.315 -6.099,5.148 -7.427,7.13 -3.042,4.54 -2.627,21.116 1.107,24.348 3.532,3.058 8.162,-0.166 10.978,-2.712l3.548 -3.763c7.863,-6.303 8.666,-5.707 17.925,-14.752 5.185,-5.065 22.225,-26.151 24.306,-33.344z"/>
     <path fill="#B2E8D2" d="M502.958 286.172c1.864,9.505 5.534,14.498 8.033,24.729 2.148,8.795 4.961,18.043 4.675,27.518 3.19,4.382 2.089,15.235 2.244,21.408l18.24 -0.108c-0.048,3.191 -0.61,5.089 0.673,7.658 1.59,3.183 1.335,-2.774 2.498,4.821 1.114,-7.512 1.852,-19.519 1.56,-27.149 -0.343,-8.94 -2.286,-19.049 -2.301,-27.286 0.237,-5.391 -3.606,-18.879 -5.507,-24.677l-6.1 -15.788c-1.342,-3.171 -1.494,-3.99 -3.759,-5.813 0.608,3.975 1.666,7.879 2.923,10.614 5.51,11.991 1.234,6.23 2.732,12.878 1.111,4.928 5.137,5.926 0.297,12.824 -4.813,-5.913 -4.327,-7.886 -3.735,-15.499l-2.34 -0.027c-0.402,5.043 -1.522,3.371 -2.143,8.63 -0.374,3.169 0.301,5.472 -0.897,7.913 -4.216,-1.293 0.47,1.003 -2.813,-6.108 -0.786,-1.703 -0.515,-0.978 -1.458,-1.945 -0.07,3.545 0.403,2.795 -1.464,5.212l-2.22 -1.302 -3.175 -9.69c-2.528,-3.073 -2.06,-5.918 -5.963,-8.813z"/>
    </g>
   </g>
  </g>
 </g>
</svg>
