<?xml version="1.0" encoding="UTF-8"?>
<!DOCTYPE svg PUBLIC "-//W3C//DTD SVG 1.1//EN" "http://www.w3.org/Graphics/SVG/1.1/DTD/svg11.dtd">
<!-- Creator: CorelDRAW -->
<svg xmlns="http://www.w3.org/2000/svg" xml:space="preserve" width="50.1066mm" height="50.1066mm" version="1.1" style="shape-rendering:geometricPrecision; text-rendering:geometricPrecision; image-rendering:optimizeQuality; fill-rule:evenodd; clip-rule:evenodd"
viewBox="0 0 1195.28 1195.28"
 xmlns:xlink="http://www.w3.org/1999/xlink"
 xmlns:xodm="http://www.corel.com/coreldraw/odm/2003">
 <defs>
  <style type="text/css">
   <![CDATA[
    .str0 {stroke:#A6A6A6;stroke-width:2.54;stroke-miterlimit:22.9256}
    .fil1 {fill:black}
    .fil3 {fill:#E6E6E6}
    .fil4 {fill:#F1C50E}
    .fil0 {fill:#F7F7F7}
    .fil2 {fill:#FC0303}
   ]]>
  </style>
 </defs>
 <g id="Layer_x0020_1">
  <metadata id="CorelCorpID_0Corel-Layer"/>
  <circle class="fil0 str0" cx="597.64" cy="597.64" r="596.37"/>
  <path class="fil1" d="M616.57 88.5l45.5 0.15c71.81,0 130.02,58.21 130.02,130.02l0 485.26c0,39.49 32.01,71.5 71.5,71.5 39.49,0 71.51,-32.01 71.51,-71.5 0,-39.49 -32.02,-71.51 -71.51,-71.51 -6.58,0 -13.13,0.95 -19.19,2.61l-15.17 -56.53c10.98,-3.02 22.42,-4.59 34.36,-4.59 71.81,0 130.01,58.21 130.01,130.01 0,71.8 -58.21,130.02 -130.01,130.02 -62.4,0 -114.59,-44.1 -127.17,-102.74 -44.85,59.35 -113.42,100.14 -191.35,108.44l-0.01 -58.92c106.44,-14.28 188.52,-105.47 188.52,-215.82 0,-110.32 -82.13,-201.48 -188.52,-215.83l0 89.12c57.69,13.3 100.76,64.99 100.76,126.71l-58.5 0c0,-39.49 -32.02,-71.5 -71.51,-71.5 -39.49,0 -71.5,32.01 -71.5,71.5l-58.51 0c0,-61.7 43.1,-113.4 100.76,-126.71l0 -219.66c0,-71.8 58.21,-130.02 130.02,-130.02l0 0zm45.5 58.65c39.49,0 71.5,32.02 71.5,71.51l0 176.19c-44.88,-57.34 -112.19,-96.64 -188.52,-104.71l0 -71.63c0,-39.49 32.02,-71.5 71.51,-71.5l45.5 0.14z"/>
  <g>
   <path class="fil2" d="M652.41 805.61c-40.11,22.67 -86.53,35.66 -135.89,35.66 -152.64,0 -276.99,-123.74 -276.99,-276.38 0,-152.63 124.35,-276.38 276.99,-276.38 50.45,0 97.9,13.62 138.61,37.22l-29.55 51.18c-32.04,-18.61 -69.35,-29.84 -109.06,-29.84 -120,0 -218.48,97.81 -218.48,217.82 0,120.01 98.48,217.29 218.48,217.29 38.66,0 74.9,-10.04 106.35,-27.74l29.54 51.17 0 0zm0 0l0 0 0 0z"/>
  </g>
  <path class="fil3" d="M444.3 564.89c0,-39.49 32.01,-71.5 71.5,-71.5 39.49,0 71.51,32.01 71.51,71.5 0,39.49 -32.02,71.51 -71.51,71.51 -39.49,0 -71.5,-32.02 -71.5,-71.51l0 0zm42.25 -215.83c-106.45,14.28 -188.52,105.47 -188.52,215.83 0,110.35 82.08,201.53 188.52,215.82l-0 -89.11c-57.73,-13.26 -100.76,-64.95 -100.76,-126.71 0,-61.7 43.1,-113.4 100.76,-126.71l0 -89.12zm58.5 431.65c106.44,-14.28 188.52,-105.47 188.52,-215.82 0,-110.32 -82.13,-201.48 -188.52,-215.83l0 89.12c57.69,13.3 100.76,64.99 100.76,126.71 0,61.76 -43.02,113.46 -100.76,126.72l-0.01 89.11 0 0zm117.02 -633.55c39.49,0 71.5,32.02 71.5,71.51l0 176.19c-44.88,-57.34 -112.19,-96.64 -188.52,-104.71l0 -71.63c0,-39.49 32.02,-71.5 71.51,-71.5l45.5 0.14zm-364.02 765.52l-0.01 -177.69c44.92,57.46 112.05,96.6 188.51,104.65l0 73.04c0,39.49 -32.01,71.5 -71.51,71.5l-45.48 0c-39.49,0 -71.51,-32.01 -71.51,-71.5z"/>
  <path class="fil2" d="M486.55 780.71c-106.44,-14.29 -188.52,-105.47 -188.52,-215.82 0,-110.36 82.07,-201.55 188.52,-215.83l0 -58.93c-138.86,14.59 -247.03,132.03 -247.03,274.75l0.02 347.79c0,71.8 58.21,130.01 130.02,130.01l45.48 0c71.81,0 130.02,-58.21 130.02,-130.01l0 -221.07c57.74,-13.26 100.76,-64.96 100.76,-126.72l-58.5 0c0,39.49 -32.02,71.51 -71.51,71.51 -39.49,0 -71.5,-32.02 -71.5,-71.51l-58.51 0c0,61.76 43.03,113.45 100.76,126.71l0 89.11zm-188.5 131.97l-0.01 -177.69c44.92,57.46 112.05,96.6 188.51,104.65l0 73.04c0,39.49 -32.01,71.5 -71.51,71.5l-45.48 0c-39.49,0 -71.51,-32.01 -71.51,-71.5z"/>
  <path class="fil4" d="M444.3 564.89c0,-39.49 32.01,-71.5 71.5,-71.5 39.49,0 71.51,32.01 71.51,71.5 0,39.49 -32.02,71.51 -71.51,71.51 -39.49,0 -71.5,-32.02 -71.5,-71.51l0 0zm-146.27 0c0,110.35 82.08,201.53 188.52,215.82l-0.01 -89.11c-57.73,-13.26 -100.76,-64.95 -100.76,-126.71 0,-507.76 -87.76,-208.62 -87.76,0zm247.02 215.82c-28.36,23.28 774.75,-238.26 0.01,-89.11l-0.01 89.11zm-247 131.97l-0.01 -177.69c44.92,57.46 112.05,96.6 188.51,104.65l0 73.04c0,39.49 -32.01,71.5 -71.51,71.5l-45.48 0c-39.49,0 -71.51,-32.01 -71.51,-71.5z"/>
 </g>
</svg>
