<?xml version="1.0" encoding="UTF-8"?>
<!DOCTYPE svg PUBLIC "-//W3C//DTD SVG 1.1//EN" "http://www.w3.org/Graphics/SVG/1.1/DTD/svg11.dtd">
<!-- Creator: CorelDRAW -->
<svg xmlns="http://www.w3.org/2000/svg" xml:space="preserve" width="279.4mm" height="60.755mm" version="1.1" style="shape-rendering:geometricPrecision; text-rendering:geometricPrecision; image-rendering:optimizeQuality; fill-rule:evenodd; clip-rule:evenodd"
viewBox="0 0 27940 6075.5"
 xmlns:xlink="http://www.w3.org/1999/xlink"
 xmlns:xodm="http://www.corel.com/coreldraw/odm/2003">
 <defs>
  <style type="text/css">
   <![CDATA[
    .fil0 {fill:#1A1A1A}
    .fil1 {fill:#E10098}
    .fil2 {fill:#E10098;fill-rule:nonzero}
    .fil3 {fill:#E10098;fill-rule:nonzero}
   ]]>
  </style>
 </defs>
 <g id="Layer_x0020_1">
  <metadata id="CorelCorpID_0Corel-Layer"/>
  <g id="_1930788113792">
   <polygon class="fil0" points="-0,6075.5 27940,6075.5 27940,0 -0,0 "/>
   <g id="GraphQL">
    <path class="fil1" d="M3123.51 1106.67l1620.53 935.6 0 1871.22 -1620.53 935.62 -1620.52 -935.62 0 -1871.22 1620.52 -935.6zm-1438.7 1040.58l0 1374.46 1190.33 -2061.69 -1190.33 687.23zm1438.7 -753.78l-1372.15 2376.63 2744.3 0 -1372.15 -2376.63zm1190.32 2558.46l-2380.65 0 1190.33 687.23 1190.32 -687.23zm248.39 -430.22l-1190.33 -2061.69 1190.33 687.23 0 1374.46z"/>
    <circle class="fil2" cx="3123.51" cy="1211.65" r="382.95"/>
    <circle class="fil2" cx="4653.13" cy="2094.77" r="382.95"/>
    <circle class="fil2" cx="4653.13" cy="3861.01" r="382.95"/>
    <circle class="fil2" cx="3123.51" cy="4744.13" r="382.95"/>
    <circle class="fil2" cx="1593.69" cy="3861.01" r="382.95"/>
    <circle class="fil2" cx="1593.69" cy="2094.77" r="382.95"/>
    <path class="fil2" d="M6982.38 3916.82c-226.14,0 -401.63,-65.13 -526.46,-195.38 -124.83,-130.26 -190.87,-304.84 -198.07,-523.73 -1.83,-54.29 -2.74,-140.21 -2.74,-257.81 0,-117.6 0.91,-203.52 2.74,-257.81 7.2,-218.89 73.24,-393.48 198.07,-523.73 124.83,-130.27 300.32,-195.38 526.46,-195.38 153.78,0 283.13,28.94 388.07,86.82 104.89,57.9 182.71,126.64 233.37,206.25 52.47,77.8 80.51,147.45 84.1,208.95l0 5.43c0,14.48 -5.41,26.23 -16.27,35.29 -10.85,9.04 -24.41,13.55 -40.72,13.55l-59.67 0c-16.28,0 -28.04,-3.61 -35.3,-10.85 -7.25,-7.23 -14.45,-21.71 -21.71,-43.42 -30.73,-95.88 -90.43,-176.39 -179.1,-241.51 -86.84,-65.13 -204.42,-97.69 -352.77,-97.69 -168.26,0 -301.2,46.13 -398.9,138.39 -95.91,92.27 -147.45,236.09 -154.7,431.48 -1.83,54.26 -2.7,135.68 -2.7,244.23 0,108.54 0.87,189.95 2.7,244.24 7.25,195.38 58.79,339.2 154.7,431.47 97.7,92.26 230.64,138.39 398.9,138.39 168.24,0 303.93,-47.93 407.04,-143.82 103.12,-95.89 154.67,-237.9 154.67,-426.04l0 -138.41 -472.14 0c-18.1,0 -32.56,-5.43 -43.43,-16.28 -10.84,-12.67 -16.27,-28.04 -16.27,-46.13l0 -37.99c0,-18.1 5.43,-32.57 16.27,-43.42 10.87,-12.67 25.33,-19 43.43,-19l580.68 0c19.93,0 35.29,5.43 46.16,16.28 10.85,10.86 16.28,26.24 16.28,46.14l0 238.81c0,144.72 -28.97,272.26 -86.85,382.62 -57.86,110.36 -142.01,196.28 -252.34,257.8 -110.37,61.51 -241.54,92.26 -393.5,92.26z"/>
    <path class="fil2" d="M8157.56 3889.7c-18.07,0 -32.58,-5.43 -43.43,-16.3 -10.84,-10.85 -16.28,-25.32 -16.28,-43.42l0 -1289c0,-18.08 5.44,-32.56 16.28,-43.42 10.85,-12.65 25.36,-18.99 43.43,-18.99l43.42 0c18.1,0 32.55,6.34 43.4,18.99 12.69,10.86 19.02,25.34 19.02,43.42l0 124.83c65.13,-124.83 188.15,-187.24 369.07,-187.24l100.38 0c18.1,0 32.56,5.43 43.42,16.28 10.85,10.87 16.28,25.32 16.28,43.42l0 37.99c0,18.1 -5.43,32.56 -16.28,43.43 -10.86,10.84 -25.32,16.27 -43.42,16.27l-116.66 0c-108.55,0 -194.48,31.66 -257.82,94.99 -63.31,63.31 -94.97,149.25 -94.97,257.79l0 841.24c0,18.1 -6.33,32.57 -19.02,43.42 -10.85,10.87 -25.3,16.3 -43.4,16.3l-43.42 0z"/>
    <path class="fil2" d="M9400.03 3916.82c-86.84,0 -167.39,-18.08 -241.54,-54.27 -74.16,-36.18 -133.86,-85.02 -179.11,-146.54 -43.42,-61.51 -65.13,-129.35 -65.13,-203.52 0,-119.4 47.94,-217.09 143.85,-293.09 97.7,-75.98 228.83,-124.82 393.48,-146.53l428.75 -59.7 0 -94.98c0,-99.5 -30.74,-175.49 -92.26,-227.96 -59.7,-54.27 -151.98,-81.41 -276.79,-81.41 -92.28,0 -168.26,18.1 -227.96,54.29 -57.88,36.17 -94.95,79.59 -111.25,130.25 -7.23,21.71 -16.27,37.08 -27.12,46.13 -9.08,7.23 -21.71,10.86 -37.99,10.86l-37.99 0c-16.3,0 -30.79,-5.43 -43.42,-16.28 -10.87,-12.67 -16.3,-27.14 -16.3,-43.42 0,-39.81 18.07,-85.94 54.29,-138.41 36.16,-54.27 92.26,-101.3 168.24,-141.11 75.99,-39.79 169.12,-59.7 279.5,-59.7 193.56,0 331.06,46.13 412.47,138.41 81.41,92.25 122.14,204.42 122.14,336.49l0 903.65c0,18.1 -5.43,32.57 -16.28,43.42 -10.86,10.87 -25.37,16.3 -43.42,16.3l-46.16 0c-18.1,0 -32.56,-5.43 -43.42,-16.3 -10.85,-10.85 -16.28,-25.32 -16.28,-43.42l0 -127.54c-39.81,59.7 -98.6,110.36 -176.36,151.98 -75.98,41.6 -177.33,62.4 -303.94,62.4zm27.14 -157.39c132.04,0 240.58,-43.42 325.63,-130.25 85.03,-86.84 127.53,-211.67 127.53,-374.5l0 -92.26 -350.05 48.84c-148.35,19.91 -260.51,54.29 -336.49,103.12 -75.98,48.86 -113.97,110.36 -113.97,184.54 0,83.21 34.34,147.44 103.12,192.67 70.55,45.23 151.96,67.84 244.23,67.84z"/>
    <path class="fil2" d="M10537.4 4405.29c-18.07,0 -32.58,-5.43 -43.42,-16.28 -10.87,-10.86 -16.28,-25.33 -16.28,-43.42l0 -1807.32c0,-18.1 5.41,-32.55 16.28,-43.42 10.84,-10.85 25.35,-16.28 43.42,-16.28l46.14 0c18.1,0 32.56,5.43 43.43,16.28 10.84,10.87 16.27,25.32 16.27,43.42l0 127.54c104.95,-142.91 256.92,-214.38 455.9,-214.38 195.4,0 339.2,62.43 431.46,187.24 94.1,123.03 143.85,274.99 149.27,455.91 1.84,18.09 2.69,47.94 2.69,89.56 0,41.6 -0.85,71.45 -2.69,89.55 -5.42,180.9 -55.17,333.78 -149.27,458.6 -92.26,123.03 -236.06,184.53 -431.46,184.53 -197.2,0 -349.16,-71.45 -455.9,-214.38l0 643.15c0,18.09 -5.43,32.56 -16.27,43.42 -10.87,10.85 -25.33,16.28 -43.43,16.28l-46.14 0zm545.46 -645.86c146.54,0 253.26,-46.13 320.22,-138.4 68.74,-94.07 105.81,-214.37 111.24,-360.91 1.82,-18.11 2.74,-43.43 2.74,-75.98 0,-168.26 -32.57,-305.75 -97.71,-412.49 -65.11,-108.54 -177.28,-162.83 -336.49,-162.83 -142.93,0 -250.57,47.95 -322.95,143.84 -72.33,94.06 -111.23,205.32 -116.67,333.78l-2.74 105.83 2.74 105.83c1.83,77.81 18.97,151.96 51.55,222.53 32.56,68.74 81.41,125.73 146.53,170.96 65.13,45.23 145.67,67.84 241.54,67.84z"/>
    <path class="fil2" d="M12114.2 3889.7c-18.07,0 -32.57,-5.43 -43.42,-16.3 -10.87,-10.85 -16.28,-25.32 -16.28,-43.42l0 -1807.3c0,-18.1 5.41,-32.58 16.28,-43.42 10.85,-10.87 25.35,-16.28 43.42,-16.28l46.15 0c18.11,0 32.57,5.41 43.42,16.28 10.85,10.84 16.28,25.32 16.28,43.42l0 643.13c54.27,-70.54 115.8,-123.93 184.53,-160.09 70.55,-36.19 161,-54.29 271.36,-54.29 177.28,0 313.88,56.99 409.75,170.96 95.92,112.17 143.85,257.81 143.85,436.91l0 770.68c0,18.1 -5.43,32.57 -16.27,43.42 -10.87,10.87 -25.33,16.3 -43.43,16.3l-46.16 0c-18.05,0 -32.56,-5.43 -43.42,-16.3 -10.85,-10.85 -16.28,-25.32 -16.28,-43.42l0 -757.11c0,-146.54 -36.17,-260.51 -108.54,-341.92 -70.56,-81.41 -172.76,-122.13 -306.62,-122.13 -130.27,0 -234.29,41.62 -312.1,124.84 -77.76,81.41 -116.67,194.47 -116.67,339.21l0 757.11c0,18.1 -5.43,32.57 -16.28,43.42 -10.85,10.87 -25.31,16.3 -43.42,16.3l-46.15 0z"/>
    <path class="fil2" d="M14919.68 4066.08c-27.15,0 -56.11,-20.81 -86.85,-62.41l-119.4 -165.53c-108.55,52.46 -235.21,78.68 -379.91,78.68 -464.94,0 -703.74,-249.65 -716.41,-748.96 -1.84,-54.29 -2.69,-130.27 -2.69,-227.96 0,-97.69 0.85,-173.67 2.69,-227.96 7.23,-246.04 74.16,-432.37 200.81,-559.01 126.64,-126.64 298.5,-189.95 515.6,-189.95 217.09,0 388.94,63.31 515.59,189.95 126.66,126.64 193.56,312.97 200.82,559.01 3.61,108.56 5.43,184.54 5.43,227.96 0,43.42 -1.82,119.4 -5.43,227.96 -9.03,258.69 -75.08,448.65 -198.08,569.86l173.67 244.24c5.44,10.84 8.13,20.8 8.13,29.85 0,14.47 -5.43,27.14 -16.28,37.99 -10.87,10.84 -23.53,16.28 -37.99,16.28l-59.7 0zm-586.16 -312.08c162.82,0 292.17,-48.84 388.07,-146.53 97.69,-99.51 150.15,-250.57 157.39,-453.19 3.61,-108.55 5.43,-180 5.43,-214.38 0,-34.38 -1.82,-105.83 -5.43,-214.38 -7.24,-202.62 -59.7,-352.78 -157.39,-450.47 -97.69,-99.51 -227.07,-149.25 -388.07,-149.25 -161,0 -290.35,49.74 -388.04,149.25 -97.69,97.69 -150.19,247.85 -157.39,450.47 -1.82,54.26 -2.74,125.73 -2.74,214.38 0,88.65 0.92,160.1 2.74,214.38 7.2,202.62 58.78,353.68 154.65,453.19 97.69,97.69 227.95,146.53 390.78,146.53z"/>
    <path class="fil2" d="M15546.81 3889.7c-18.06,0 -32.55,-5.43 -43.42,-16.3 -10.84,-10.85 -16.28,-25.32 -16.28,-43.42l0 -1780.18c0,-18.08 5.44,-32.55 16.28,-43.42 10.87,-10.84 25.36,-16.28 43.42,-16.28l51.58 0c18.12,0 32.58,5.44 43.42,16.28 10.87,10.87 16.28,25.34 16.28,43.42l0 1677.07 936.21 0c19.92,0 35.3,5.42 46.15,16.28 10.86,10.85 16.28,26.23 16.28,46.13l0 40.7c0,18.1 -6.34,32.57 -19.01,43.42 -10.86,10.87 -25.32,16.3 -43.42,16.3l-1047.49 0z"/>
   </g>
  </g>
  <path id="API" class="fil3" d="M19801.33 4052.51l792.78 -2066.62 300.66 0 841.37 2066.62 -311.24 0 -239.09 -626.34 -870.23 0 -224.17 626.34 -290.08 0zm594.59 -848.58l704.26 0 -215.51 -572.94c-64.94,-174.14 -114.01,-317.98 -148.17,-431.51 -28.38,134.7 -66.38,266.99 -114.01,397.83l-226.57 606.62z"/>
  <path id="_1" class="fil3" d="M21953.1 4052.51l0 -2066.62 780.27 0c137.1,0 241.97,6.74 314.61,19.72 101.51,16.84 186.65,49.07 255.44,96.22 68.8,47.62 124.12,114.01 165.97,199.15 41.85,85.15 62.54,178.96 62.54,281.42 0,175.11 -55.81,323.75 -167.89,444.98 -111.61,121.71 -314.13,182.32 -606.62,182.32l-530.12 0 0 842.81 -274.2 0zm274.2 -1085.26l533.97 0c177.03,0 302.11,-32.72 376.67,-98.62 74.08,-65.91 111.12,-158.27 111.12,-278.05 0,-86.11 -21.64,-160.19 -65.42,-221.77 -43.78,-61.57 -101.5,-102.46 -172.7,-122.19 -46.18,-12.02 -131.33,-18.28 -254.96,-18.28l-528.68 0 0 738.91z"/>
  <polygon id="_2" class="fil3" points="23924.47,4052.51 23924.47,1985.89 24198.67,1985.89 24198.67,4052.51 "/>
 </g>
</svg>
