<?xml version="1.0" encoding="UTF-8"?>
<!DOCTYPE svg PUBLIC "-//W3C//DTD SVG 1.1//EN" "http://www.w3.org/Graphics/SVG/1.1/DTD/svg11.dtd">
<!-- Creator: CorelDRAW 2021 (64-Bit) -->
<svg xmlns="http://www.w3.org/2000/svg" xml:space="preserve" width="100%" height="100%" version="1.1" shape-rendering="geometricPrecision" text-rendering="geometricPrecision" image-rendering="optimizeQuality" fill-rule="evenodd" clip-rule="evenodd"
viewBox="0 0 3231.726 702.732"
 xmlns:xlink="http://www.w3.org/1999/xlink"
 xmlns:xodm="http://www.corel.com/coreldraw/odm/2003">
 <g id="Layer_x0020_1">
  <metadata id="CorelCorpID_0Corel-Layer"/>
  <g id="HTML5-Banner.svg">
   <polygon fill="#E34F26" points="-0,702.732 3231.726,702.732 3231.726,0 -0,0 "/>
   <text x="1106.107" y="443.678"  fill="white" stroke="white" stroke-width="0.762" stroke-linecap="round" stroke-linejoin="round" stroke-miterlimit="22.9256" font-weight="bold" font-size="282.222px" font-family="Arial">HTML 5</text>
   <g>
    <path fill="#FFFEFE" d="M231.718 490.348c27.685,5.497 104.985,33.613 125.52,33.595 13.876,-0.013 117.186,-31.33 126.475,-37.029l27.694 -312.684 -310.769 -0.023 31.08 316.141z"/>
    <path fill="#E34F26" d="M271.058 353.746l133.733 2.431 -4.82 48.993c-32.535,14.701 -52.893,14.646 -83.941,-0.184l-4.538 -28.242 -37.951 -1.687 4.473 60.417c67.421,24.388 91.09,24.737 158.504,-0.017l10.462 -118.552 -140.539 -0.394 -1.877 -38.845 145.045 -0.275 4.523 -38.852 -192.832 0.021 9.758 115.186z"/>
   </g>
  </g>
 </g>
</svg>
