<?xml version="1.0" encoding="UTF-8"?>
<!DOCTYPE svg PUBLIC "-//W3C//DTD SVG 1.1//EN" "http://www.w3.org/Graphics/SVG/1.1/DTD/svg11.dtd">
<!-- Creator: CorelDRAW 2021 (64-Bit) -->
<svg xmlns="http://www.w3.org/2000/svg" xml:space="preserve" width="100%" height="100%" version="1.1" shape-rendering="geometricPrecision" text-rendering="geometricPrecision" image-rendering="optimizeQuality" fill-rule="evenodd" clip-rule="evenodd"
viewBox="0 0 3231.758 702.734"
 xmlns:xlink="http://www.w3.org/1999/xlink"
 xmlns:xodm="http://www.corel.com/coreldraw/odm/2003">
 <g id="Layer_x0020_1">
  <metadata id="CorelCorpID_0Corel-Layer"/>
  <g id="JavaScript-Banner.svg">
   <polygon fill="#323330" points="-0,702.734 3231.758,702.734 3231.758,0 -0,0 "/>
   <text x="776.237" y="438.188"  fill="white" stroke="white" stroke-width="0.762" stroke-linecap="round" stroke-linejoin="round" stroke-miterlimit="22.9256" font-weight="bold" font-size="282.222px" font-family="Arial">JAVASCRIPT</text>
   <g>
    <polygon fill="#F5DE1E" points="147.599,562.326 568.534,561.299 568.562,142.524 550.153,141.672 165.533,141.343 147.599,143.305 "/>
    <path fill="#373435" fill-rule="nonzero" d="M323.415 333.464l39.122 0 0 122.404c0,16.01 -1.393,28.332 -4.227,36.965 -3.777,11.243 -10.612,20.28 -20.551,27.117 -9.892,6.789 -22.979,10.207 -39.258,10.207 -19.066,0 -33.726,-5.307 -43.978,-15.963 -10.298,-10.658 -15.469,-26.308 -15.56,-46.903l36.965 -4.317c0.449,11.017 2.023,18.797 4.811,23.339 4.183,6.925 10.523,10.387 19.067,10.387 8.589,0 14.705,-2.473 18.257,-7.464 3.553,-4.947 5.352,-15.245 5.352,-30.894l0 -124.878zm70.465 130.589l38.044 -3.777c2.293,12.726 6.88,22.034 13.85,28.015 6.971,5.981 16.368,8.949 28.195,8.949 12.502,0 21.946,-2.653 28.285,-7.96 6.341,-5.306 9.534,-11.512 9.534,-18.616 0,-4.587 -1.349,-8.455 -4.002,-11.693 -2.654,-3.192 -7.33,-5.981 -13.986,-8.319 -4.542,-1.619 -14.884,-4.406 -31.073,-8.454 -20.821,-5.216 -35.436,-11.602 -43.844,-19.202 -11.828,-10.656 -17.718,-23.653 -17.718,-38.987 0,-9.848 2.788,-19.112 8.319,-27.701 5.576,-8.589 13.581,-15.11 24.059,-19.606 10.477,-4.497 23.068,-6.745 37.908,-6.745 24.148,0 42.36,5.351 54.547,16.098 12.231,10.748 18.617,25.048 19.246,42.99l-39.122 1.349c-1.664,-9.983 -5.216,-17.132 -10.658,-21.495 -5.441,-4.362 -13.626,-6.565 -24.507,-6.565 -11.243,0 -20.056,2.338 -26.397,7.016 -4.093,3.012 -6.161,7.015 -6.161,12.051 0,4.586 1.934,8.499 5.801,11.737 4.902,4.182 16.819,8.499 35.75,12.996 18.932,4.451 32.918,9.128 41.956,13.895 9.083,4.811 16.189,11.332 21.316,19.651 5.125,8.319 7.689,18.572 7.689,30.759 0,11.061 -3.058,21.45 -9.219,31.119 -6.161,9.667 -14.84,16.862 -26.082,21.539 -11.241,4.722 -25.272,7.06 -42.046,7.06 -24.418,0 -43.17,-5.621 -56.255,-16.908 -13.086,-11.242 -20.866,-27.656 -23.429,-49.196z"/>
   </g>
  </g>
 </g>
</svg>
