<?xml version="1.0" encoding="UTF-8"?>
<!DOCTYPE svg PUBLIC "-//W3C//DTD SVG 1.1//EN" "http://www.w3.org/Graphics/SVG/1.1/DTD/svg11.dtd">
<!-- Creator: CorelDRAW 2021 (64-Bit) -->
<svg xmlns="http://www.w3.org/2000/svg" xml:space="preserve" width="100%" height="100%" version="1.1" shape-rendering="geometricPrecision" text-rendering="geometricPrecision" image-rendering="optimizeQuality" fill-rule="evenodd" clip-rule="evenodd"
viewBox="0 0 3231.728 702.734"
 xmlns:xlink="http://www.w3.org/1999/xlink"
 xmlns:xodm="http://www.corel.com/coreldraw/odm/2003">
 <g id="Layer_x0020_1">
  <metadata id="CorelCorpID_0Corel-Layer"/>
  <g id="Node.JS-Banner.svg">
   <polygon fill="#6DA55F" points="-0,702.734 3231.728,702.734 3231.728,0 -0,0 "/>
   <text x="993.969" y="443.679"  fill="white" stroke="white" stroke-width="0.762" stroke-linecap="round" stroke-linejoin="round" stroke-miterlimit="22.9256" font-weight="bold" font-size="282.222px" font-family="Arial">NODE.JS</text>
   <g>
    <polygon fill="#FEFFFF" points="147.601,557.025 568.563,557.025 568.563,136.063 147.601,136.063 "/>
    <path fill="#35495E" d="M315.194 283.259l-22.269 -0.043 -0.425 155.915c-1.828,6.807 -6.404,9.881 -12.37,10.433 -14.923,-2.403 -11.605,0.602 -55.599,-27.783l0.421 -152.093 131.842 -75.329 132.23 75.547 1.062 155.081c-45.648,21.908 -84.145,51.983 -131.276,74.245 -34.832,-18.119 -30.341,-15.202 -42.723,-22.078 -5.553,4.648 -7.961,7.016 -20.127,14.146 8.002,4.54 6.49,4.065 14.859,9.221 65.418,41.744 67.726,11.621 172.062,-45.522 34.751,-19.033 30.815,-19.786 30.58,-65.262 -0.79,-153.792 22.885,-119.351 -96.475,-188.181 -16.176,-9.325 -45.433,-31.746 -66.738,-28.05 -12.575,2.181 -102.424,57.577 -120.984,68.094 -31.845,18.042 -27.941,23.016 -27.707,63.744 0.182,32.197 0.039,64.401 -0.095,96.596 -0.175,41.265 7.06,39.622 35.227,56.151 17.773,10.431 49.037,25.607 69.429,4.856 3.597,-3.659 10.18,-11.833 10.041,-23.132 -0.552,-44.751 -1.25,-131.001 -0.965,-156.556zm14.487 86.848c-0.067,33.656 16.762,46.015 48.675,49.837 88.883,10.643 111.206,-63.186 48.008,-79.335 -30.92,-7.901 -66.982,-1.412 -68.264,-22.5 -0.674,-11.069 9.439,-24.638 34.644,-24.34 37.507,0.445 39.776,22.204 41.732,33.601 9.777,-0.266 9.989,0.04 21.804,0.178 -5.274,-43.181 -26.706,-49.578 -62.511,-49.538 -68.256,-0.15 -74.977,55.231 -41.457,72.518 18.539,9.561 100.766,1.96 76.025,41.442 -9.16,7.758 -32.537,13.371 -50.129,7.531 -20.232,-6.708 -24.269,-18.57 -25.211,-29.629 -4.54,-0.237 -6.522,0 -23.316,0.235z"/>
   </g>
  </g>
 </g>
</svg>
