<?xml version="1.0" encoding="UTF-8"?>
<!DOCTYPE svg PUBLIC "-//W3C//DTD SVG 1.1//EN" "http://www.w3.org/Graphics/SVG/1.1/DTD/svg11.dtd">
<!-- Creator: CorelDRAW 2021 (64-Bit) -->
<svg xmlns="http://www.w3.org/2000/svg" xml:space="preserve" width="100%" height="100%" version="1.1" shape-rendering="geometricPrecision" text-rendering="geometricPrecision" image-rendering="optimizeQuality" fill-rule="evenodd" clip-rule="evenodd"
viewBox="0 0 3231.728 702.734"
 xmlns:xlink="http://www.w3.org/1999/xlink"
 xmlns:xodm="http://www.corel.com/coreldraw/odm/2003">
 <g id="Layer_x0020_1">
  <metadata id="CorelCorpID_0Corel-Layer"/>
  <g id="Nuxt.JS-Banner.svg">
   <polygon fill="#6DA55F" points="-0,702.734 3231.728,702.734 3231.728,0 -0,0 "/>
   <text x="884.97" y="443.679"  fill="white" stroke="white" stroke-width="0.762" stroke-linecap="round" stroke-linejoin="round" stroke-miterlimit="22.9256" font-weight="bold" font-size="282.222px" font-family="Arial">N</text>
   <text x="1888.598" y="443.679"  fill="white" stroke="white" stroke-width="0.762" stroke-linecap="round" stroke-linejoin="round" stroke-miterlimit="22.9256" font-weight="bold" font-size="282.222px" font-family="Arial">.JS</text>
   <text x="1088.781" y="443.679"  fill="white" stroke="white" stroke-width="0.762" stroke-linecap="round" stroke-linejoin="round" stroke-miterlimit="22.9256" font-weight="bold" font-size="282.222px" font-family="Arial">UXT 3</text>
   <g>
    <polygon fill="#FEFFFF" points="147.601,561.987 568.563,561.987 568.563,141.025 147.601,141.025 "/>
    <path fill="#00DC82" fill-rule="nonzero" d="M381.617 480.094l143.404 0c4.555,0 9.029,-1.188 12.974,-3.445 3.944,-2.257 7.22,-5.504 9.496,-9.414 2.277,-3.912 3.474,-8.346 3.472,-12.86 -0.002,-4.515 -1.204,-8.949 -3.484,-12.856l-96.306 -165.327c-2.276,-3.909 -5.55,-7.156 -9.494,-9.412 -3.943,-2.258 -8.417,-3.446 -12.971,-3.446 -4.553,0 -9.028,1.188 -12.971,3.446 -3.943,2.256 -7.219,5.503 -9.496,9.412l-24.624 42.3 -48.146 -82.718c-2.278,-3.909 -5.555,-7.154 -9.499,-9.411 -3.945,-2.256 -8.419,-3.444 -12.974,-3.444 -4.554,0 -9.029,1.188 -12.973,3.444 -3.945,2.257 -7.222,5.502 -9.499,9.411l-119.842 205.745c-2.28,3.907 -3.481,8.341 -3.483,12.856 -0.002,4.514 1.195,8.948 3.472,12.86 2.276,3.91 5.551,7.157 9.496,9.414 3.944,2.257 8.419,3.445 12.974,3.445l90.017 0c35.666,0 61.968,-15.527 80.067,-45.819l43.939 -75.42 23.535 -40.363 70.633 121.239 -94.168 0 -23.549 40.363zm-101.925 -40.404l-62.82 -0.013 94.168 -161.643 46.986 80.821 -31.459 54.019c-12.019,19.655 -25.673,26.816 -46.875,26.816z"/>
   </g>
  </g>
 </g>
</svg>
