<?xml version="1.0" encoding="UTF-8"?>
<!DOCTYPE svg PUBLIC "-//W3C//DTD SVG 1.1//EN" "http://www.w3.org/Graphics/SVG/1.1/DTD/svg11.dtd">
<!-- Creator: CorelDRAW 2021 (64-Bit) -->
<svg xmlns="http://www.w3.org/2000/svg" xml:space="preserve" width="100%" height="100%" version="1.1" shape-rendering="geometricPrecision" text-rendering="geometricPrecision" image-rendering="optimizeQuality" fill-rule="evenodd" clip-rule="evenodd"
viewBox="0 0 3231.758 702.734"
 xmlns:xlink="http://www.w3.org/1999/xlink"
 xmlns:xodm="http://www.corel.com/coreldraw/odm/2003">
 <defs>
     <clipPath id="id0">
      <path d="M188.747 478.192l338.667 0 0 -254 -338.667 0 0 254z"/>
     </clipPath>
 </defs>
 <g id="Layer_x0020_1">
  <metadata id="CorelCorpID_0Corel-Layer"/>
  <g id="Playwright-Banner.svg">
   <polygon fill="#323330" points="-0,702.734 3231.758,702.734 3231.758,0 -0,0 "/>
   <text x="666.919" y="445.808"  fill="white" stroke="white" stroke-width="0.762" stroke-linecap="round" stroke-linejoin="round" stroke-miterlimit="22.9256" font-weight="bold" font-size="282.222px" font-family="Arial">PLAYWRIGHT</text>
   <g>
    <polygon fill="white" points="147.599,561.684 568.534,560.657 568.562,141.882 550.153,141.03 165.533,140.701 147.599,142.663 "/>
    <g>
    </g>
    <g clip-path="url(#id0)">
     <g>
      <path fill="#2D4552" fill-rule="nonzero" d="M300.375 367.532c-12.642,3.588 -20.937,9.879 -26.401,16.164 5.234,-4.579 12.244,-8.783 21.699,-11.463 9.672,-2.741 17.923,-2.721 24.741,-1.405l0 -5.332c-5.817,-0.531 -12.484,-0.108 -20.039,2.036zm-26.979 -44.816l-46.95 12.369c0,0 0.855,1.209 2.44,2.822l39.809 -10.491c0,0 -0.565,7.27 -5.464,13.772 9.267,-7.01 10.165,-18.472 10.165,-18.472zm39.303 110.344c-66.074,17.796 -101.031,-58.777 -111.615,-98.52 -4.889,-18.346 -7.024,-32.239 -7.593,-41.206 -0.054,-0.811 -0.043,-1.625 0.033,-2.434 -3.426,0.205 -5.068,1.987 -4.735,7.137 0.569,8.96 2.704,22.853 7.594,41.205 10.579,39.738 45.54,116.311 111.614,98.515 14.382,-3.875 25.186,-10.931 33.298,-19.941 -7.477,6.753 -16.833,12.069 -28.596,15.244zm12.414 -157.208l0 4.703 25.916 0c-0.53,-1.666 -1.066,-3.166 -1.598,-4.703l-24.318 0z"/>
      <path fill="#2D4552" fill-rule="nonzero" d="M356.823 314.58c11.656,3.311 17.821,11.483 21.079,18.714l12.996 3.691c0,0 -1.772,-25.31 -24.665,-31.812 -21.418,-6.086 -34.597,11.899 -36.2,14.226 6.231,-4.438 15.327,-8.072 26.79,-4.819zm103.449 18.83c-21.436,-6.111 -34.61,11.911 -36.19,14.205 6.235,-4.434 15.328,-8.069 26.785,-4.801 11.638,3.315 17.796,11.477 21.065,18.714l13.014 3.704c0,0 -1.801,-25.314 -24.674,-31.822zm-12.912 66.732l-108.106 -30.222c0,0 1.171,5.934 5.661,13.617l91.021 25.445c7.493,-4.335 11.424,-8.84 11.424,-8.84zm-74.949 65.053c-85.6,-22.95 -75.252,-132.013 -61.401,-183.695 5.703,-21.298 11.566,-37.128 16.429,-47.741 -2.901,-0.597 -5.305,0.931 -7.678,5.76 -5.165,10.47 -11.766,27.518 -18.153,51.383 -13.847,51.682 -24.197,160.743 61.399,183.693 40.345,10.808 71.776,-5.619 95.205,-31.418 -22.238,20.143 -50.633,31.436 -85.801,22.018z"/>
      <path fill="#E2574C" fill-rule="nonzero" d="M325.114 407.502l0 -22.01 -61.149 17.341c0,0 4.518,-26.254 36.41,-35.301 9.671,-2.741 17.924,-2.722 24.739,-1.406l0 -90.274 30.619 0c-3.333,-10.302 -6.559,-18.233 -9.268,-23.744 -4.481,-9.122 -9.074,-3.075 -19.501,5.647 -7.345,6.136 -25.907,19.226 -53.84,26.752 -27.932,7.533 -50.516,5.536 -59.938,3.903 -13.357,-2.304 -20.343,-5.239 -19.69,4.923 0.569,8.961 2.703,22.856 7.594,41.206 10.578,39.739 45.54,116.311 111.614,98.515 17.259,-4.65 29.44,-13.843 37.885,-25.559l-25.475 0 0 0.005 0 0.002zm-98.673 -72.417l46.955 -12.369c0,0 -1.368,18.063 -18.97,22.704 -17.608,4.635 -27.985,-10.335 -27.985,-10.335z"/>
      <path fill="#2EAD33" fill-rule="nonzero" d="M501.834 276.897c-12.205,2.139 -41.488,4.805 -77.676,-4.895 -36.199,-9.694 -60.215,-26.649 -69.732,-34.618 -13.489,-11.298 -19.423,-19.151 -25.262,-7.274 -5.162,10.475 -11.765,27.524 -18.154,51.39 -13.846,51.682 -24.195,160.741 61.401,183.691 85.575,22.931 131.135,-76.7 144.982,-128.385 6.39,-23.861 9.192,-41.929 9.962,-53.58 0.879,-13.198 -8.187,-9.367 -25.521,-6.329zm-171.974 42.758c0,0 13.488,-20.98 36.367,-14.477 22.893,6.502 24.666,31.811 24.666,31.811l-61.033 -17.334zm55.847 94.142c-40.242,-11.787 -46.448,-43.877 -46.448,-43.877l108.101 30.224c0,-0.006 -21.82,25.294 -61.653,13.652l0 0.001zm38.219 -65.947c0,0 13.472,-20.964 36.346,-14.444 22.873,6.513 24.674,31.822 24.674,31.822l-61.018 -17.378 -0.002 0z"/>
      <path fill="#D65348" fill-rule="nonzero" d="M303.745 391.554l-39.78 11.274c0,0 4.321,-24.618 33.626,-34.374l-22.524 -84.537 -1.946 0.592c-27.933,7.532 -50.515,5.535 -59.937,3.902 -13.358,-2.303 -20.345,-5.238 -19.692,4.924 0.569,8.962 2.704,22.855 7.594,41.205 10.579,39.739 45.541,116.311 111.614,98.515l1.946 -0.611 -10.899 -40.891 -0.002 0.001zm-77.304 -56.469l46.955 -12.37c0,0 -1.368,18.063 -18.97,22.704 -17.608,4.635 -27.985,-10.334 -27.985,-10.334z"/>
      <path fill="#1D8D22" fill-rule="nonzero" d="M387.522 414.239l-1.82 -0.443c-40.242,-11.787 -46.448,-43.876 -46.448,-43.876l55.744 15.582 29.512 -113.406 -0.358 -0.093c-36.197,-9.695 -60.213,-26.65 -69.731,-34.62 -13.488,-11.298 -19.423,-19.15 -25.262,-7.273 -5.157,10.475 -11.76,27.524 -18.149,51.39 -13.846,51.682 -24.195,160.741 61.401,183.69l1.754 0.397 13.357 -51.348zm-57.662 -94.586c0,0 13.488,-20.98 36.367,-14.476 22.893,6.502 24.666,31.811 24.666,31.811l-61.033 -17.335z"/>
      <path fill="#C04B41" fill-rule="nonzero" d="M305.772 390.975l-10.668 3.028c2.522,14.208 6.964,27.843 13.936,39.888 1.214,-0.267 2.418,-0.497 3.654,-0.836 3.239,-0.873 6.244,-1.956 9.136,-3.136 -7.792,-11.563 -12.946,-24.877 -16.058,-38.944zm-4.164 -100.071c-5.483,20.461 -10.388,49.913 -9.037,79.454 2.415,-1.049 4.969,-2.027 7.805,-2.831l1.974 -0.442c-2.408,-31.554 2.796,-63.707 8.66,-85.585 1.39,-5.188 2.877,-10.35 4.462,-15.483 -2.582,1.651 -5.218,3.216 -7.903,4.692 -2.162,6.679 -4.15,13.413 -5.961,20.195z"/>
     </g>
    </g>
    <polygon fill="none" points="188.747,478.192 527.414,478.192 527.414,224.192 188.747,224.192 "/>
   </g>
  </g>
 </g>
</svg>
