<?xml version="1.0" encoding="UTF-8"?>
<!DOCTYPE svg PUBLIC "-//W3C//DTD SVG 1.1//EN" "http://www.w3.org/Graphics/SVG/1.1/DTD/svg11.dtd">
<!-- Creator: CorelDRAW -->
<svg xmlns="http://www.w3.org/2000/svg" xml:space="preserve" width="279.4mm" height="60.755mm" version="1.1" style="shape-rendering:geometricPrecision; text-rendering:geometricPrecision; image-rendering:optimizeQuality; fill-rule:evenodd; clip-rule:evenodd"
viewBox="0 0 27940 6075.5"
 xmlns:xlink="http://www.w3.org/1999/xlink"
 xmlns:xodm="http://www.corel.com/coreldraw/odm/2003">
 <defs>
  <style type="text/css">
   <![CDATA[
    .fil1 {fill:#00CCFF}
    .fil0 {fill:#1A1A1A}
    .fil2 {fill:white}
    .fil3 {fill:#00CCFF;fill-rule:nonzero}
   ]]>
  </style>
 </defs>
 <g id="Layer_x0020_1">
  <metadata id="CorelCorpID_0Corel-Layer"/>
  <g id="REST_x0020_API">
   <polygon class="fil0" points="-0,6075.5 27940,6075.5 27940,0 -0,0 "/>
   <g id="REST">
    <g id="ICON">
     <circle class="fil1" cx="3084.98" cy="3110.97" r="2298.91"/>
     <g>
      <path class="fil2" d="M3365.5 2862.68c127.49,81.73 211.52,224.38 211.52,387.06 0,150.05 -71.46,283 -182.66,366.92l190.43 397.98c149.6,-18.74 292.2,58.38 359.08,198.15 82.32,172.03 14.57,389.44 -162.61,461 -182.78,87.45 -394.57,3.81 -476.88,-168.22 -66.88,-139.78 -26.71,-304.34 70.98,-403.94l-189.86 -396.96c-22.18,3.21 -44.96,4.85 -68.26,4.85 -99.44,0 -191.61,-31.68 -266.83,-85.33l-413.8 397.85c7.73,26.12 15.18,60.87 14.3,86.71 -4.08,120.58 -102.04,212.11 -222.62,208.02 -120.58,-4.08 -212.11,-102.04 -208.03,-222.62 4.09,-120.58 102.05,-212.11 222.63,-208.03 25.84,0.88 51.38,10.37 77.22,11.24l412.13 -396.03c-37.41,-57.08 -62.36,-122.9 -71.2,-193.89l-497.34 -72.29c-67.75,134.69 -211.22,210.19 -364.56,187.9 -200.51,-29.14 -331.56,-204.77 -302.42,-405.28 29.14,-200.53 204.77,-331.57 405.29,-302.43 153.34,22.29 269.37,135.5 295.98,283.91l495.42 71.97c13.06,-30.98 29.37,-60.13 48.56,-87.19l-464.84 -480.55c-76.5,38.41 -169.39,40.27 -252.93,-2.61 -139.41,-71.56 -192.71,-237.31 -121.15,-376.71 71.56,-139.41 237.31,-192.72 376.71,-121.16 29.88,15.34 54.64,40.62 84.51,55.96l612.06 -207.16c-5.79,-248.31 187.44,-457.4 436.99,-469.72 253.62,-12.53 469.38,182.92 481.9,436.54 11.62,235.36 -155.78,438.11 -382.65,476.09l-147.07 567.97 0 0zm-488.67 -4.99l-475.91 -477.97c0,-0.01 -0.01,0.01 0,0 15.33,-29.87 25.82,-74.81 31.2,-109.79l602.11 -204.85c49.17,88.81 126.42,158.73 219.33,198.73l-156.43 526.58c-58.12,2.46 -176.16,29.3 -220.3,67.3z"/>
     </g>
    </g>
    <polygon id="I" class="fil3" points="23611.91,4273.44 23611.91,1996.93 23913.96,1996.93 23913.96,4273.44 "/>
    <path id="P" class="fil3" d="M21440.33 4273.44l0 -2276.51 859.52 0c151.02,0 266.55,7.42 346.56,21.73 111.81,18.55 205.61,54.05 281.39,105.98 75.77,52.46 136.71,125.59 182.82,219.39 46.1,93.79 68.89,197.12 68.89,309.99 0,192.89 -61.47,356.64 -184.94,490.17 -122.94,134.07 -346.04,200.84 -668.22,200.84l-583.97 0 0 928.41 -302.05 0zm302.05 -1195.48l588.2 0c195.01,0 332.79,-36.04 414.93,-108.64 81.6,-72.59 122.41,-174.34 122.41,-306.29 0,-94.85 -23.85,-176.46 -72.07,-244.29 -48.22,-67.83 -111.81,-112.87 -190.24,-134.59 -50.87,-13.25 -144.67,-20.14 -280.85,-20.14l-582.38 0 0 813.95z"/>
    <path id="A" class="fil3" d="M19070.03 4273.44l873.3 -2276.51 331.19 0 926.82 2276.51 -342.85 0 -263.37 -689.95 -958.61 0 -246.94 689.95 -319.54 0zm654.97 -934.77l775.8 0 -237.4 -631.12c-71.54,-191.83 -125.59,-350.28 -163.22,-475.34 -31.26,148.38 -73.13,294.11 -125.59,438.24l-249.59 668.22z"/>
    <polygon id="T" class="fil3" points="13406.93,4249.23 13406.93,2239.8 12656.57,2239.8 12656.57,1972.72 14459.33,1972.72 14459.33,2239.8 13708.98,2239.8 13708.98,4249.23 "/>
    <path id="S" class="fil3" d="M10608.99 3517.95l282.97 -25.44c13.25,114.47 44.51,208.26 93.79,281.92 49.29,73.13 125.59,132.48 228.93,178.05 103.33,45.04 219.91,67.83 349.21,67.83 114.99,0 216.2,-16.96 304.17,-51.4 87.97,-34.45 153.15,-81.61 196.07,-141.49 42.92,-59.88 64.65,-125.06 64.65,-195.01 0,-71.01 -20.67,-133.01 -62,-186.53 -41.34,-52.99 -109.69,-97.5 -205.08,-134.07 -60.94,-23.31 -196.07,-60.41 -405.38,-110.75 -209.32,-50.34 -355.57,-97.5 -439.3,-142.02 -108.63,-57.23 -189.18,-128.23 -242.17,-212.49 -53.52,-84.26 -80.02,-179.11 -80.02,-283.5 0,-115.53 32.86,-223.1 98.04,-322.72 65.18,-100.15 160.03,-175.93 285.62,-227.86 125.06,-51.94 264.43,-77.9 417.57,-77.9 168.51,0 317.42,27.02 446.19,81.61 128.77,54.05 227.86,134.06 297.28,240.05 69.42,105.45 106.51,225.21 111.81,358.75l-289.33 22.25c-15.37,-143.6 -67.83,-252.24 -157.39,-325.36 -89.55,-73.66 -222.03,-110.23 -396.9,-110.23 -182.29,0 -315.3,33.39 -398.5,100.16 -83.19,66.77 -125.06,147.31 -125.06,241.64 0,81.61 29.68,148.9 88.5,201.9 58.29,52.46 209.32,107.04 454.14,162.15 244.82,55.64 412.8,103.86 503.94,145.2 131.95,60.94 229.99,137.77 293.05,231.57 63.06,93.26 94.32,200.84 94.32,322.72 0,121.35 -34.44,234.75 -103.86,341.79 -69.42,107.04 -168.52,190.24 -298.34,249.59 -129.83,59.35 -275.56,89.02 -438.24,89.02 -205.61,0 -377.83,-30.2 -516.67,-90.08 -139.37,-59.88 -248,-149.97 -326.95,-270.79 -79.49,-120.29 -120.82,-256.48 -125.06,-408.56z"/>
    <polygon id="E" class="fil3" points="8593.2,4249.23 8593.2,1972.72 10236.99,1972.72 10236.99,2239.8 8895.25,2239.8 8895.25,2939.28 10151.14,2939.28 10151.14,3206.36 8895.25,3206.36 8895.25,3982.15 10291.04,3982.15 10291.04,4249.23 "/>
    <path id="R" class="fil3" d="M6297.09 4249.23l0 -2276.51 1008.95 0c202.96,0 357.17,20.67 462.62,61.47 105.45,40.81 189.71,112.87 252.77,216.21 63.06,103.33 94.32,217.79 94.32,342.85 0,161.62 -52.46,297.81 -156.85,408.56 -104.4,110.76 -265.49,180.7 -483.81,210.91 80.01,38.15 140.42,76.31 181.76,113.4 87.96,80.55 171.16,181.76 249.06,303.11l393.72 620 -376.24 0 -300.99 -473.74c-87.43,-137.25 -160.03,-241.64 -216.73,-314.24 -57.23,-72.6 -108.1,-122.94 -153.15,-152.09 -44.51,-28.61 -90.61,-48.75 -137.24,-60.41 -33.92,-6.89 -89.56,-10.59 -167.46,-10.59l-348.68 0 0 1011.07 -302.05 0zm302.05 -1271.79l646.49 0c137.78,0 244.82,-14.31 322.19,-42.92 77.37,-28.09 136.19,-73.66 175.93,-136.72 40.28,-62.53 60.41,-130.36 60.41,-204.02 0,-107.57 -38.68,-196.6 -116.58,-266.02 -77.9,-69.41 -200.84,-103.86 -368.82,-103.86l-719.62 0 0 753.54z"/>
   </g>
  </g>
 </g>
</svg>
