<?xml version="1.0" encoding="utf-8"?>
<!-- Generator: Adobe Illustrator 25.4.1, SVG Export Plug-In . SVG Version: 6.00 Build 0)  -->
<svg version="1.1" id="Layer_1" xmlns:xodm="http://www.corel.com/coreldraw/odm/2003"
	 xmlns="http://www.w3.org/2000/svg" xmlns:xlink="http://www.w3.org/1999/xlink" x="0px" y="0px" viewBox="0 0 612 792"
	 style="enable-background:new 0 0 612 792;" xml:space="preserve">
<style type="text/css">
	.st0{fill-rule:evenodd;clip-rule:evenodd;fill:#1A1A1A;}
	.st1{fill-rule:evenodd;clip-rule:evenodd;fill:#00CCFF;}
	.st2{fill-rule:evenodd;clip-rule:evenodd;fill:#FFFFFF;}
	.st3{fill:#00CCFF;}
</style>
<g id="LOGO">
	<polygon class="st0" points="-90,482.1 702,482.1 702,309.9 -90,309.9 	"/>
	<g id="REST">
		<g id="REST_3">
			<circle class="st1" cx="-2.6" cy="398.1" r="65.2"/>
			<g>
				<path id="_x3C_Path_x3E_" class="st2" d="M5.4,391c3.6,2.3,6,6.4,6,11c0,4.3-2,8-5.2,10.4l5.4,11.3c4.2-0.5,8.3,1.7,10.2,5.6
					c2.3,4.9,0.4,11-4.6,13.1c-5.2,2.5-11.2,0.1-13.5-4.8c-1.9-4-0.8-8.6,2-11.5l-5.4-11.3C-0.3,415-1,415-1.6,415
					c-2.8,0-5.4-0.9-7.6-2.4l-11.7,11.3c0.2,0.7,0.4,1.7,0.4,2.5c-0.1,3.4-2.9,6-6.3,5.9c-3.4-0.1-6-2.9-5.9-6.3
					c0.1-3.4,2.9-6,6.3-5.9c0.7,0,1.5,0.3,2.2,0.3l11.7-11.2c-1.1-1.6-1.8-3.5-2-5.5l-14.1-2c-1.9,3.8-6,6-10.3,5.3
					c-5.7-0.8-9.4-5.8-8.6-11.5c0.8-5.7,5.8-9.4,11.5-8.6c4.3,0.6,7.6,3.8,8.4,8l14,2c0.4-0.9,0.8-1.7,1.4-2.5l-13.2-13.6
					c-2.2,1.1-4.8,1.1-7.2-0.1c-4-2-5.5-6.7-3.4-10.7c2-4,6.7-5.5,10.7-3.4c0.8,0.4,1.5,1.2,2.4,1.6l17.3-5.9
					c-0.2-7,5.3-13,12.4-13.3c7.2-0.4,13.3,5.2,13.7,12.4c0.3,6.7-4.4,12.4-10.8,13.5L5.4,391L5.4,391L5.4,391z M-8.5,390.9
					l-13.5-13.5c0,0,0,0,0,0c0.4-0.8,0.7-2.1,0.9-3.1l17.1-5.8c1.4,2.5,3.6,4.5,6.2,5.6L-2.2,389C-3.9,389.1-7.2,389.8-8.5,390.9
					L-8.5,390.9z"/>
			</g>
		</g>
		<path id="R" class="st3" d="M88.5,430.3v-64.5h28.6c5.8,0,10.1,0.6,13.1,1.7c3,1.2,5.4,3.2,7.2,6.1c1.8,2.9,2.7,6.2,2.7,9.7
			c0,4.6-1.5,8.4-4.4,11.6c-3,3.1-7.5,5.1-13.7,6c2.3,1.1,4,2.2,5.2,3.2c2.5,2.3,4.9,5.2,7.1,8.6l11.2,17.6h-10.7l-8.5-13.4
			c-2.5-3.9-4.5-6.8-6.1-8.9c-1.6-2.1-3.1-3.5-4.3-4.3c-1.3-0.8-2.6-1.4-3.9-1.7c-1-0.2-2.5-0.3-4.7-0.3h-9.9v28.7H88.5L88.5,430.3z
			 M97.1,394.3h18.3c3.9,0,6.9-0.4,9.1-1.2c2.2-0.8,3.9-2.1,5-3.9c1.1-1.8,1.7-3.7,1.7-5.8c0-3-1.1-5.6-3.3-7.5
			c-2.2-2-5.7-2.9-10.5-2.9H97.1L97.1,394.3L97.1,394.3z"/>
		<polygon id="E" class="st3" points="153.6,430.3 153.6,365.8 200.2,365.8 200.2,373.4 162.1,373.4 162.1,393.2 197.7,393.2 
			197.7,400.8 162.1,400.8 162.1,422.8 201.7,422.8 201.7,430.3 		"/>
		<path id="S" class="st3" d="M210.7,409.6l8-0.7c0.4,3.2,1.3,5.9,2.7,8c1.4,2.1,3.6,3.8,6.5,5c2.9,1.3,6.2,1.9,9.9,1.9
			c3.3,0,6.1-0.5,8.6-1.5c2.5-1,4.3-2.3,5.6-4s1.8-3.5,1.8-5.5c0-2-0.6-3.8-1.8-5.3c-1.2-1.5-3.1-2.8-5.8-3.8
			c-1.7-0.7-5.6-1.7-11.5-3.1c-5.9-1.4-10.1-2.8-12.5-4c-3.1-1.6-5.4-3.6-6.9-6c-1.5-2.4-2.3-5.1-2.3-8c0-3.3,0.9-6.3,2.8-9.1
			c1.8-2.8,4.5-5,8.1-6.5c3.5-1.5,7.5-2.2,11.8-2.2c4.8,0,9,0.8,12.6,2.3c3.7,1.5,6.5,3.8,8.4,6.8c2,3,3,6.4,3.2,10.2l-8.2,0.6
			c-0.4-4.1-1.9-7.2-4.5-9.2c-2.5-2.1-6.3-3.1-11.3-3.1c-5.2,0-8.9,0.9-11.3,2.8c-2.4,1.9-3.5,4.2-3.5,6.8c0,2.3,0.8,4.2,2.5,5.7
			c1.7,1.5,5.9,3,12.9,4.6c6.9,1.6,11.7,2.9,14.3,4.1c3.7,1.7,6.5,3.9,8.3,6.6c1.8,2.6,2.7,5.7,2.7,9.1c0,3.4-1,6.7-2.9,9.7
			c-2,3-4.8,5.4-8.5,7.1c-3.7,1.7-7.8,2.5-12.4,2.5c-5.8,0-10.7-0.9-14.6-2.6c-4-1.7-7-4.3-9.3-7.7
			C212,417.8,210.8,413.9,210.7,409.6L210.7,409.6z"/>
		<polygon id="T" class="st3" points="290,430.3 290,373.4 268.8,373.4 268.8,365.8 319.9,365.8 319.9,373.4 298.6,373.4 
			298.6,430.3 		"/>
		<path id="A" class="st3" d="M450.6,431l24.8-64.5h9.4L511,431h-9.7l-7.5-19.6h-27.2l-7,19.6H450.6L450.6,431z M469.1,404.5h22
			l-6.7-17.9c-2-5.4-3.6-9.9-4.6-13.5c-0.9,4.2-2.1,8.3-3.6,12.4L469.1,404.5z"/>
		<path id="P" class="st3" d="M517.8,431v-64.5h24.4c4.3,0,7.6,0.2,9.8,0.6c3.2,0.5,5.8,1.5,8,3c2.1,1.5,3.9,3.6,5.2,6.2
			c1.3,2.7,2,5.6,2,8.8c0,5.5-1.7,10.1-5.2,13.9c-3.5,3.8-9.8,5.7-18.9,5.7h-16.6V431L517.8,431L517.8,431z M526.3,397.1H543
			c5.5,0,9.4-1,11.8-3.1c2.3-2.1,3.5-4.9,3.5-8.7c0-2.7-0.7-5-2-6.9c-1.4-1.9-3.2-3.2-5.4-3.8c-1.4-0.4-4.1-0.6-8-0.6h-16.5
			L526.3,397.1L526.3,397.1z"/>
		<polygon id="I" class="st3" points="579.3,431 579.3,366.5 587.9,366.5 587.9,431 		"/>
	</g>
</g>
</svg>
