<?xml version="1.0" encoding="UTF-8"?>
<!DOCTYPE svg PUBLIC "-//W3C//DTD SVG 1.1//EN" "http://www.w3.org/Graphics/SVG/1.1/DTD/svg11.dtd">
<!-- Creator: CorelDRAW 2021 (64-Bit) -->
<svg xmlns="http://www.w3.org/2000/svg" xml:space="preserve" width="100%" height="100%" version="1.1" shape-rendering="geometricPrecision" text-rendering="geometricPrecision" image-rendering="optimizeQuality" fill-rule="evenodd" clip-rule="evenodd"
viewBox="0 0 3290.685 702.734"
 xmlns:xlink="http://www.w3.org/1999/xlink"
 xmlns:xodm="http://www.corel.com/coreldraw/odm/2003">
 <g id="Layer_x0020_1">
  <metadata id="CorelCorpID_0Corel-Layer"/>
  <g id="RustLang.svg">
   <polygon fill="#323330" points="-0,702.734 3231.758,702.734 3231.758,0 -0,0 "/>
   <text x="651.947" y="445.808"  fill="white" stroke="white" stroke-width="0.762" stroke-linecap="round" stroke-linejoin="round" stroke-miterlimit="22.9256" font-weight="bold" font-size="282.222px" font-family="Arial">RUST LANGUAGE</text>
   <g>
    <polygon fill="white" points="147.599,562.007 568.534,560.98 568.562,142.205 550.153,141.353 165.533,141.024 147.599,142.986 "/>
    <path id="RUST" fill="black" fill-rule="nonzero" d="M520.052 346.495l-13.802 -8.546c-0.108,-1.265 -0.215,-2.486 -0.348,-3.719l11.841 -11.069c0.939,-0.879 1.473,-2.109 1.473,-3.395 0,-1.938 -1.203,-3.673 -3.016,-4.353l-15.181 -5.693c-0.341,-1.189 -0.683,-2.391 -1.056,-3.567l9.488 -13.176c0.566,-0.789 0.872,-1.738 0.872,-2.71 0,-2.279 -1.653,-4.223 -3.903,-4.589l-16.078 -2.625c-0.569,-1.095 -1.132,-2.182 -1.727,-3.258l6.755 -14.813c0.275,-0.604 0.418,-1.262 0.418,-1.926 0,-2.567 -2.082,-4.649 -4.649,-4.649 -0.054,0 -0.11,0.001 -0.164,0.003l-16.332 0.576c-0.755,-0.937 -1.516,-1.864 -2.283,-2.784l3.719 -15.914c0.081,-0.346 0.122,-0.702 0.122,-1.058 0,-2.57 -2.085,-4.655 -4.656,-4.655 -0.356,0 -0.711,0.041 -1.057,0.122l-15.915 3.751c-0.915,-0.772 -1.843,-1.533 -2.783,-2.284l0.576 -16.331c0.002,-0.065 0.004,-0.132 0.004,-0.197 0,-2.567 -2.082,-4.649 -4.649,-4.649 -0.665,0 -1.323,0.143 -1.927,0.418l-14.814 6.787c-1.075,-0.595 -2.169,-1.164 -3.257,-1.727l-2.625 -16.079c-0.366,-2.249 -2.31,-3.901 -4.589,-3.901 -0.972,0 -1.921,0.305 -2.711,0.872l-13.194 9.468c-1.176,-0.373 -2.372,-0.714 -3.567,-1.056l-5.693 -15.18c-0.68,-1.814 -2.415,-3.017 -4.353,-3.017 -1.287,0 -2.516,0.534 -3.395,1.474l-11.069 11.84c-1.234,-0.133 -2.473,-0.24 -3.72,-0.348l-8.526 -13.814c-0.847,-1.369 -2.343,-2.202 -3.953,-2.202 -1.61,0 -3.106,0.833 -3.953,2.202l-8.546 13.802c-1.265,0.107 -2.486,0.215 -3.719,0.347l-11.069 -11.84c-0.879,-0.94 -2.109,-1.474 -3.395,-1.474 -1.938,0 -3.673,1.203 -4.353,3.017l-5.693 15.181c-1.195,0.347 -2.397,0.683 -3.58,1.062l-13.169 -9.488c-0.79,-0.566 -1.739,-0.872 -2.711,-0.872 -2.279,0 -4.223,1.653 -4.589,3.903l-2.625 16.072c-1.094,0.569 -2.182,1.132 -3.264,1.727l-14.8 -6.724c-0.605,-0.276 -1.262,-0.419 -1.927,-0.419 -2.567,0 -4.649,2.082 -4.649,4.649 0,0.066 0.002,0.133 0.004,0.197l0.582 16.326c-0.943,0.752 -1.898,1.511 -2.796,2.283l-15.908 -3.776c-0.346,-0.081 -0.702,-0.122 -1.058,-0.122 -2.57,0 -4.655,2.085 -4.655,4.655 0,0.356 0.041,0.712 0.122,1.058l3.751 15.914c-0.779,0.918 -1.538,1.854 -2.29,2.79l-16.326 -0.576c-0.046,-0.001 -0.094,-0.002 -0.141,-0.002 -1.558,0 -3.015,0.774 -3.887,2.064 -0.509,0.763 -0.781,1.662 -0.781,2.579 0,0.666 0.143,1.326 0.42,1.931l6.743 14.807c-0.595,1.076 -1.158,2.17 -1.727,3.264l-16.073 2.619c-2.249,0.366 -3.901,2.31 -3.901,4.589 0,0.972 0.305,1.921 0.872,2.71l9.487 13.169c-0.373,1.183 -0.714,2.385 -1.062,3.58l-15.181 5.693c-1.813,0.68 -3.016,2.415 -3.016,4.353 0,1.287 0.534,2.517 1.473,3.395l11.841 11.069c-0.133,1.234 -0.24,2.474 -0.348,3.72l-13.827 8.539c-1.369,0.847 -2.203,2.343 -2.203,3.953 0,1.61 0.834,3.106 2.203,3.953l13.801 8.546c0.108,1.265 0.216,2.479 0.348,3.712l-11.84 11.069c-0.94,0.879 -1.474,2.109 -1.474,3.396 0,1.937 1.203,3.672 3.017,4.352l15.181 5.693c0.347,1.196 0.683,2.391 1.062,3.574l-9.488 13.175c-0.566,0.79 -0.872,1.739 -0.872,2.711 0,2.279 1.653,4.223 3.903,4.589l16.078 2.625c0.569,1.088 1.132,2.182 1.727,3.251l-6.724 14.82c-0.277,0.605 -0.42,1.265 -0.42,1.931 0,0.917 0.272,1.816 0.78,2.579 0.83,1.288 2.259,2.068 3.792,2.068 0.079,0 0.159,-0.002 0.238,-0.006l16.338 -0.576c0.746,0.936 1.505,1.864 2.277,2.783l-3.751 15.914c-0.081,0.347 -0.122,0.702 -0.122,1.058 0,2.571 2.085,4.656 4.655,4.656 0.356,0 0.712,-0.041 1.058,-0.122l15.914 -3.751c0.92,0.772 1.849,1.533 2.79,2.284l-0.582 16.331c-0.002,0.054 -0.003,0.11 -0.003,0.165 0,2.567 2.082,4.649 4.649,4.649 0.664,0 1.322,-0.143 1.926,-0.418l14.82 -6.755c1.069,0.594 2.163,1.157 3.251,1.726l2.625 16.079c0.364,2.248 2.306,3.901 4.583,3.901 0.975,0 1.926,-0.307 2.716,-0.877l13.175 -9.488c1.177,0.379 2.379,0.715 3.574,1.063l5.693 15.18c0.684,1.811 2.419,3.011 4.355,3.011 1.285,0 2.514,-0.532 3.394,-1.468l11.069 -11.84c1.233,0.132 2.479,0.24 3.719,0.347l8.545 13.802c0.847,1.369 2.343,2.203 3.953,2.203 1.61,0 3.106,-0.834 3.953,-2.203l8.546 -13.802c1.265,-0.107 2.485,-0.215 3.719,-0.354l11.069 11.847c0.88,0.936 2.108,1.468 3.393,1.468 1.936,0 3.672,-1.2 4.355,-3.011l5.693 -15.18c1.195,-0.348 2.391,-0.683 3.574,-1.063l13.169 9.488c0.79,0.57 1.741,0.877 2.716,0.877 2.277,0 4.219,-1.653 4.583,-3.901l2.625 -16.078c1.088,-0.57 2.182,-1.132 3.258,-1.727l14.813 6.755c0.604,0.275 1.262,0.418 1.926,0.418 2.567,0 4.649,-2.082 4.649,-4.649 0,-0.055 -0.001,-0.111 -0.003,-0.165l-0.576 -16.332c0.937,-0.754 1.864,-1.515 2.784,-2.283l15.907 3.751c0.347,0.081 0.702,0.122 1.058,0.122 2.571,0 4.656,-2.085 4.656,-4.656 0,-0.356 -0.041,-0.711 -0.122,-1.057l-3.751 -15.915c0.772,-0.915 1.533,-1.842 2.283,-2.783l16.332 0.576c0.067,0.003 0.137,0.004 0.204,0.004 1.542,0 2.98,-0.777 3.825,-2.066 0.512,-0.765 0.785,-1.664 0.785,-2.585 0,-0.664 -0.143,-1.321 -0.418,-1.925l-6.755 -14.814c0.594,-1.075 1.157,-2.169 1.727,-3.257l16.078 -2.625c2.249,-0.366 3.902,-2.31 3.902,-4.589 0,-0.972 -0.306,-1.921 -0.872,-2.711l-9.488 -13.175c0.373,-1.183 0.715,-2.378 1.057,-3.574l15.18 -5.692c1.814,-0.681 3.017,-2.416 3.017,-4.353 0,-1.287 -0.534,-2.517 -1.474,-3.396l-11.841 -11.069c0.133,-1.233 0.241,-2.473 0.348,-3.713l13.802 -8.545c1.369,-0.847 2.203,-2.343 2.203,-3.953 0,-1.61 -0.834,-3.106 -2.203,-3.953l0.032 0zm-214.52 87.941c-1.454,-6.79 -8.412,-11.064 -16.793,-7.993 -6.732,2.016 -8.091,2.724 -12.573,4.494 -0.777,0.307 -2.151,-0.203 -2.246,-0.304 -3.219,-3.421 -13.706,-10.831 -9.016,-10.831l96.879 0.002c1.088,0 1.828,-0.184 1.828,-1.208l0 -34.277c0,-0.993 -0.741,-1.208 -1.829,-1.208l-28.355 0 0.031 -21.727 30.665 0c2.789,0 14.965,0.81 18.843,16.363 1.208,4.776 3.902,20.33 5.73,25.301 1.828,5.579 9.235,16.737 17.141,16.737l50.001 0c-3.345,4.48 -5.71,14.585 -10.968,12.71l-11.059 -3.943c-13.243,-4.177 -18.431,0.325 -20.637,10.627l-3.915 18.278c-23.371,12.362 -31.854,13.167 -48.723,13.167 -17.245,0 -41.625,-4.437 -50.172,-13.632l-4.832 -22.556zm-63.125 -97.809l20.766 -9.234c3.175,-1.407 5.223,-4.555 5.223,-8.027 0,-1.229 -0.259,-2.445 -0.758,-3.567l-4.282 -9.628 16.8 0 0 75.732 -33.903 0c-3,-10.559 -4.536,-21.514 -4.536,-32.498 0,-4.26 0.247,-8.549 0.696,-12.78l-0.006 0.002zm-7.122 -22.808c0,-0.002 0,-0.005 0,-0.007 0,-5.32 4.313,-9.637 9.634,-9.639l0.29 0c5.215,0.147 9.368,4.419 9.368,9.636 0,5.322 -4.317,9.639 -9.64,9.639 -5.321,0 -9.638,-4.314 -9.639,-9.636l-0.013 0.007zm108.066 5.844l0.032 -22.34 40.013 0c2.074,0 14.592,2.384 14.592,11.777 0,7.774 -9.608,10.563 -17.508,10.563l-37.129 0zm107.427 62.86c-6.199,0.715 -13.049,-2.606 -13.915,-6.382 -3.656,-20.551 -9.735,-24.921 -19.336,-32.512 11.929,-7.558 24.326,-18.747 24.326,-33.688 0,-16.142 -11.063,-26.306 -18.596,-31.297 -10.601,-6.957 -22.315,-8.368 -25.471,-8.368l-125.809 0c17.395,-19.42 40.734,-32.61 66.346,-37.446l14.845 15.56c1.648,1.742 3.942,2.727 6.337,2.727 2.259,0 4.433,-0.876 6.06,-2.441l16.61 -15.813c34.229,6.399 63.956,27.569 81.201,57.831l-11.385 25.661c-0.485,1.111 -0.735,2.311 -0.735,3.522 0,3.481 2.042,6.642 5.215,8.072l21.879 9.697c0.381,3.879 0.583,7.824 0.583,11.74 0,2.948 -0.115,5.91 -0.332,8.843l-12.193 -0.001c-1.208,0 -1.702,0.803 -1.702,1.98l0 5.579c-0.013,13.124 -7.407,16.021 -13.928,16.736zm-100.571 -155.916c0.01,-5.309 4.313,-9.611 9.621,-9.621l0.285 0c5.217,0.144 9.374,4.417 9.374,9.636 0,5.323 -4.317,9.64 -9.64,9.64 -5.323,0 -9.639,-4.317 -9.639,-9.64 0,-0.005 0,-0.011 0,-0.015l-0.001 0zm124.506 97.275c-5.323,0 -9.64,-4.317 -9.64,-9.639 0,-5.323 4.317,-9.64 9.64,-9.64l0.278 0c5.268,0.075 9.501,4.37 9.501,9.64 0,5.323 -4.317,9.64 -9.64,9.64 -0.046,0 -0.094,-0.001 -0.139,-0.001l0 0zm-56.879 117.033c0,-0.002 0,-0.005 0,-0.007 0,-5.32 4.313,-9.637 9.634,-9.639l0.29 0c5.215,0.147 9.368,4.419 9.368,9.636 0,5.322 -4.317,9.639 -9.64,9.639 -5.321,0 -9.638,-4.314 -9.639,-9.636l-0.013 0.007zm-135.222 0c0,-0.002 0,-0.005 0,-0.007 0,-5.32 4.313,-9.637 9.634,-9.639l0.29 0c5.215,0.147 9.368,4.419 9.368,9.636 0,5.322 -4.317,9.639 -9.64,9.639 -5.321,0 -9.638,-4.314 -9.639,-9.636l-0.013 0.007z"/>
   </g>
  </g>
 </g>
</svg>
